
<svg width="230px" height="230px" viewBox="0 0 230 230" version="1.1" xmlns="http://www.w3.org/2000/svg" xmlns:xlink="http://www.w3.org/1999/xlink">
    <g id="Page-1" stroke="none" stroke-width="1" fill="none" fill-rule="evenodd">
        <g id="Logos" transform="translate(-134.000000, -135.000000)">
            <g id="Group" transform="translate(141.000000, 181.000000)">
                <path d="M217.970588,132.705882 C217.970588,135.529412 215.852941,137.647059 213.029412,137.647059 L124.794118,137.647059 C122.147059,137.647059 120.029412,135.529412 120.029412,132.705882 L120.029412,5.29411765 C120.029412,2.47058824 122.147059,0.352941176 124.794118,0.352941176 L134.676471,0.352941176 C137.323529,0.352941176 139.617647,2.47058824 139.617647,5.29411765 L139.617647,118.058824 L213.029412,118.058824 C215.852941,118.058824 217.970588,120.176471 217.970588,123 L217.970588,132.705882 Z" id="L" fill="#50E3C2"></path>
                <path d="M97.9705882,132.705882 C97.9705882,135.529412 95.8529412,137.647059 93.0294118,137.647059 L4.79411765,137.647059 C2.14705882,137.647059 0.0294117647,135.529412 0.0294117647,132.705882 L0.0294117647,5.29411765 C0.0294117647,2.47058824 2.14705882,0.352941176 4.79411765,0.352941176 L14.6764706,0.352941176 C17.3235294,0.352941176 19.6176471,2.47058824 19.6176471,5.29411765 L19.6176471,118.058824 L93.0294118,118.058824 C95.8529412,118.058824 97.9705882,120.176471 97.9705882,123 L97.9705882,132.705882 Z" id="L" fill="#000000"></path>
            </g>
            <rect id="Rectangle" x="134" y="135" width="230" height="230"></rect>
        </g>
    </g>
</svg>