
<svg width="672px" height="375px" viewBox="0 0 672 375" version="1.1" xmlns="http://www.w3.org/2000/svg" xmlns:xlink="http://www.w3.org/1999/xlink">
    <g id="Page-1" stroke="none" stroke-width="1" fill="none" fill-rule="evenodd">
        <g id="3782958" transform="translate(-46.000000, -58.000000)">
            <path d="M624.686,215.501 C643.757,239.311 705.412,255.432 713.574,284.437 C737.041,367.827 658.955,418.472 658.955,418.472 L85.251,418.472 C85.251,418.472 24.824,348.071 53.974,280.769 C66.186,252.575 99.554,241.854 127.399,228.862 C145.824,220.267 163.62,209.152 176.08,193.086 C197.778,165.105 200.47,126.152 221.011,97.311 C239.315,71.613 271.446,56.563 302.941,58.419 C363.556,61.989 358.25,106.039 403.593,119.708 C430.396,127.788 457.543,120.711 483.698,113.635 C522.956,103.014 559.979,92.393 590.253,133.02 C616.793,168.639 588.461,170.275 624.686,215.501" id="Fill-2" fill="#BCE1E5"></path>
            <path d="M226.067,136.028 L225.567,136.028 C225.564,137.898 224.05,139.412 222.18,139.415 C220.309,139.412 218.796,137.898 218.792,136.028 C218.796,134.157 220.309,132.644 222.18,132.641 C224.05,132.644 225.564,134.157 225.567,136.028 L226.567,136.028 C226.567,133.604 224.603,131.641 222.18,131.641 C219.757,131.641 217.793,133.604 217.792,136.028 C217.793,138.451 219.757,140.415 222.18,140.415 C224.603,140.415 226.567,138.451 226.567,136.028 L226.067,136.028" id="Fill-3" fill="#58BEC5"></path>
            <path d="M351.418,97.124 L350.918,97.124 C350.915,98.994 349.401,100.508 347.53,100.511 C345.66,100.508 344.146,98.994 344.143,97.124 C344.146,95.253 345.66,93.74 347.53,93.736 C349.401,93.74 350.915,95.253 350.918,97.124 L351.918,97.124 C351.918,94.7 349.953,92.737 347.53,92.736 C345.107,92.737 343.143,94.7 343.143,97.124 C343.143,99.547 345.107,101.511 347.53,101.511 C349.954,101.511 351.918,99.547 351.918,97.124 L351.418,97.124" id="Fill-4" fill="#58BEC5"></path>
            <path d="M77.605,335.499 L77.105,335.499 C77.102,337.37 75.588,338.883 73.718,338.887 C71.847,338.883 70.334,337.37 70.331,335.499 C70.334,333.629 71.847,332.115 73.718,332.111 C75.588,332.115 77.102,333.629 77.105,335.499 L78.105,335.499 C78.105,333.076 76.141,331.112 73.718,331.111 C71.294,331.112 69.331,333.076 69.331,335.499 C69.331,337.923 71.294,339.886 73.718,339.887 C76.141,339.886 78.105,337.923 78.105,335.499 L77.605,335.499" id="Fill-5" fill="#58BEC5"></path>
            <path d="M368.871,227.997 L368.371,227.997 C368.368,229.868 366.855,231.381 364.984,231.384 C363.113,231.381 361.6,229.868 361.597,227.997 C361.6,226.126 363.113,224.613 364.984,224.61 C366.855,224.613 368.368,226.126 368.371,227.997 L369.371,227.997 C369.371,225.574 367.407,223.61 364.984,223.61 C362.561,223.61 360.597,225.574 360.597,227.997 C360.597,230.42 362.561,232.384 364.984,232.384 C367.407,232.384 369.371,230.42 369.371,227.997 L368.871,227.997" id="Fill-6" fill="#58BEC5"></path>
            <path d="M601.392,235.72 L600.892,235.72 C600.888,237.59 599.375,239.104 597.505,239.107 C595.634,239.104 594.121,237.59 594.117,235.72 C594.121,233.849 595.634,232.335 597.505,232.332 C599.375,232.335 600.888,233.849 600.892,235.72 L601.892,235.72 C601.891,233.296 599.928,231.332 597.505,231.332 C595.081,231.332 593.117,233.296 593.117,235.72 C593.117,238.143 595.081,240.107 597.505,240.107 C599.928,240.107 601.891,238.143 601.892,235.72 L601.392,235.72" id="Fill-7" fill="#58BEC5"></path>
            <path d="M687.19,328.963 L686.69,328.963 C686.687,330.833 685.173,332.347 683.303,332.351 C681.432,332.347 679.918,330.833 679.915,328.963 C679.918,327.092 681.432,325.579 683.303,325.575 C685.173,325.579 686.687,327.092 686.69,328.963 L687.69,328.963 C687.69,326.539 685.726,324.576 683.303,324.575 C680.879,324.575 678.915,326.539 678.915,328.963 C678.915,331.386 680.879,333.35 683.303,333.351 C685.726,333.35 687.69,331.386 687.69,328.963 L687.19,328.963" id="Fill-8" fill="#58BEC5"></path>
            <path d="M432.474,124.227 L431.974,124.227 C431.97,126.097 430.457,127.611 428.586,127.614 C426.716,127.611 425.203,126.097 425.199,124.227 C425.203,122.356 426.716,120.843 428.586,120.839 C430.457,120.843 431.97,122.356 431.974,124.227 L432.974,124.227 C432.973,121.803 431.01,119.84 428.586,119.839 C426.163,119.84 424.2,121.803 424.199,124.227 C424.2,126.65 426.163,128.614 428.586,128.614 C431.01,128.614 432.973,126.65 432.974,124.227 L432.474,124.227" id="Fill-9" fill="#58BEC5"></path>
            <path d="M554.04,379.312 L553.54,379.312 C553.537,381.182 552.024,382.695 550.152,382.698 C548.282,382.695 546.769,381.182 546.766,379.312 C546.769,377.44 548.282,375.927 550.152,375.924 C552.024,375.927 553.537,377.44 553.54,379.312 L554.54,379.312 C554.54,376.888 552.576,374.924 550.152,374.924 C547.729,374.924 545.766,376.888 545.766,379.312 C545.766,381.734 547.729,383.698 550.152,383.698 C552.576,383.698 554.54,381.734 554.54,379.312 L554.04,379.312" id="Fill-10" fill="#58BEC5"></path>
            <path d="M323.803,391.275 L323.303,391.275 C323.3,393.146 321.786,394.66 319.916,394.663 C318.046,394.66 316.532,393.146 316.529,391.275 C316.532,389.404 318.045,387.891 319.916,387.888 C321.787,387.891 323.3,389.404 323.303,391.275 L324.303,391.275 C324.303,388.852 322.339,386.888 319.916,386.888 C317.493,386.888 315.529,388.852 315.529,391.275 C315.529,393.698 317.493,395.663 319.916,395.663 C322.339,395.663 324.303,393.698 324.303,391.275 L323.803,391.275" id="Fill-11" fill="#58BEC5"></path>
            <path d="M497.436,311.827 L496.936,311.827 C496.932,313.697 495.419,315.211 493.548,315.214 C491.678,315.211 490.164,313.697 490.161,311.827 C490.164,309.956 491.678,308.443 493.548,308.439 C495.419,308.443 496.932,309.956 496.936,311.827 L497.936,311.827 C497.935,309.403 495.972,307.44 493.548,307.439 C491.125,307.44 489.161,309.403 489.161,311.827 C489.161,314.25 491.125,316.214 493.548,316.214 C495.972,316.214 497.935,314.25 497.936,311.827 L497.436,311.827" id="Fill-12" fill="#58BEC5"></path>
            <polygon id="Fill-13" fill="#58BEC5" points="538.192 241.867 545.531 241.867 545.531 240.867 538.192 240.867"></polygon>
            <polygon id="Fill-14" fill="#58BEC5" points="541.361 245.037 542.361 245.037 542.361 237.698 541.361 237.698"></polygon>
            <polygon id="Fill-15" fill="#58BEC5" points="433.666 264.873 441.006 264.873 441.006 263.873 433.666 263.873"></polygon>
            <polygon id="Fill-16" fill="#58BEC5" points="436.836 268.043 437.836 268.043 437.836 260.704 436.836 260.704"></polygon>
            <polygon id="Fill-17" fill="#58BEC5" points="513.888 140.415 521.227 140.415 521.227 139.415 513.888 139.415"></polygon>
            <polygon id="Fill-18" fill="#58BEC5" points="517.057 143.585 518.057 143.585 518.057 136.246 517.057 136.246"></polygon>
            <polygon id="Fill-19" fill="#58BEC5" points="642.397 383.48 649.736 383.48 649.736 382.48 642.397 382.48"></polygon>
            <polygon id="Fill-20" fill="#58BEC5" points="645.567 386.65 646.567 386.65 646.567 379.312 645.567 379.312"></polygon>
            <polygon id="Fill-21" fill="#58BEC5" points="442.825 387.888 450.164 387.888 450.164 386.888 442.825 386.888"></polygon>
            <polygon id="Fill-22" fill="#58BEC5" points="445.995 391.058 446.995 391.058 446.995 383.719 445.995 383.719"></polygon>
            <polygon id="Fill-23" fill="#58BEC5" points="136.023 395.663 143.362 395.663 143.362 394.663 136.023 394.663"></polygon>
            <polygon id="Fill-24" fill="#58BEC5" points="139.192 398.832 140.192 398.832 140.192 391.493 139.192 391.493"></polygon>
            <polygon id="Fill-25" fill="#58BEC5" points="244.386 212.83 251.725 212.83 251.725 211.83 244.386 211.83"></polygon>
            <polygon id="Fill-26" fill="#58BEC5" points="247.555 215.999 248.555 215.999 248.555 208.66 247.555 208.66"></polygon>
            <path d="M291.185,241.572 L341.013,241.572 C346.257,241.572 350.996,243.695 354.434,247.132 C357.871,250.57 359.994,255.309 359.994,260.554 L359.994,300.256 C359.995,311.844 369.387,321.237 380.976,321.237 L454.785,321.237 C460.03,321.238 464.769,323.36 468.207,326.797 C471.644,330.235 473.766,334.974 473.767,340.219 L473.767,385.463 C473.767,397.052 483.16,406.444 494.748,406.444 L544.397,406.444 C555.984,406.444 565.377,397.052 565.378,385.463 L565.378,337.587 C565.378,332.342 567.501,327.603 570.937,324.165 C574.375,320.729 579.114,318.606 584.359,318.605 L625.422,318.605 C637.01,318.605 646.403,309.212 646.403,297.624 L646.403,182.196 C646.403,170.607 637.01,161.215 625.422,161.214 L592.198,161.214 C580.609,161.215 571.217,170.608 571.217,182.196 L571.217,245.015 C571.216,250.26 569.094,254.999 565.657,258.437 C562.219,261.874 557.48,263.997 552.235,263.997 L502.997,263.997 C497.752,263.997 493.013,261.874 489.575,258.437 C486.139,254.999 484.016,250.26 484.016,245.015 L484.016,210.14 C484.015,198.552 474.622,189.159 463.034,189.158 L431.866,189.158 C426.621,189.158 421.882,187.035 418.444,183.599 C415.008,180.161 412.885,175.422 412.885,170.177 L412.885,103.852 C412.884,92.264 403.491,82.871 391.903,82.871 L339.898,82.871 C328.309,82.871 318.917,92.264 318.916,103.852 L318.916,133.293 C318.916,138.538 316.793,143.277 313.357,146.715 C309.918,150.151 305.179,152.274 299.935,152.274 L249.306,152.274 C237.717,152.275 228.325,161.667 228.324,173.256 L228.324,243.566 L230.324,243.566 L230.324,173.256 C230.325,168.011 232.447,163.272 235.884,159.834 C239.322,156.397 244.061,154.275 249.306,154.274 L299.935,154.274 C311.523,154.274 320.915,144.881 320.916,133.293 L320.916,103.852 C320.916,98.607 323.039,93.868 326.475,90.43 C329.913,86.994 334.653,84.871 339.898,84.871 L391.903,84.871 C397.148,84.871 401.887,86.994 405.325,90.43 C408.762,93.868 410.884,98.607 410.885,103.852 L410.885,170.177 C410.885,181.765 420.277,191.158 431.866,191.158 L463.034,191.158 C468.279,191.159 473.018,193.281 476.456,196.718 C479.892,200.156 482.015,204.895 482.016,210.14 L482.016,245.015 C482.016,256.603 491.409,265.996 502.997,265.997 L552.235,265.997 C563.823,265.996 573.216,256.603 573.217,245.015 L573.217,182.196 C573.217,176.951 575.34,172.212 578.776,168.774 C582.214,165.337 586.953,163.215 592.198,163.214 L625.422,163.214 C630.666,163.215 635.405,165.337 638.844,168.774 C642.28,172.212 644.403,176.951 644.403,182.196 L644.403,297.624 C644.403,302.869 642.28,307.608 638.844,311.046 C635.405,314.482 630.666,316.605 625.422,316.605 L584.359,316.605 C572.77,316.606 563.379,325.999 563.378,337.587 L563.378,385.463 C563.377,390.708 561.255,395.447 557.818,398.885 C554.38,402.321 549.641,404.444 544.397,404.444 L494.748,404.444 C489.503,404.444 484.764,402.321 481.326,398.885 C477.89,395.447 475.767,390.708 475.767,385.463 L475.767,340.219 C475.766,328.63 466.374,319.238 454.785,319.237 L380.976,319.237 C375.731,319.237 370.992,317.114 367.554,313.678 C364.117,310.239 361.995,305.501 361.994,300.256 L361.994,260.554 C361.993,248.965 352.6,239.573 341.013,239.572 L291.185,239.572 L291.185,241.572" id="Fill-27" fill="#715B97"></path>
            <polyline id="Fill-28" fill="#82A4A5" points="234.68 413.862 161.183 413.862 172.218 334.244 223.644 334.244 234.68 413.862"></polyline>
            <path d="M235.434,409.932 L160.428,409.932 C158.771,409.932 157.427,411.275 157.427,412.933 L157.427,413.862 L238.435,413.862 L238.435,412.933 C238.435,411.275 237.091,409.932 235.434,409.932" id="Fill-29" fill="#B9DFDA"></path>
            <path d="M292.349,374.856 L103.513,374.856 C96.668,374.856 91.12,369.308 91.12,362.464 L91.12,236.854 C91.12,230.009 96.668,224.461 103.513,224.461 L292.349,224.461 C299.193,224.461 304.742,230.009 304.742,236.854 L304.742,362.464 C304.742,369.308 299.193,374.856 292.349,374.856" id="Fill-30" fill="#5B7F89"></path>
            <polygon id="Fill-31" fill="#FFFFFE" points="101.464 345.383 294.398 345.383 294.398 234.805 101.464 234.805"></polygon>
            <path d="M91.12,355.727 L91.12,362.464 C91.12,369.308 96.668,374.856 103.513,374.856 L292.349,374.856 C299.193,374.856 304.742,369.308 304.742,362.464 L304.742,355.727 L91.12,355.727" id="Fill-32" fill="#B9DFDA"></path>
            <path d="M203.36,365.291 C203.36,368.29 200.93,370.721 197.931,370.721 C194.933,370.721 192.501,368.29 192.501,365.291 C192.501,362.293 194.933,359.861 197.931,359.861 C200.93,359.861 203.36,362.293 203.36,365.291" id="Fill-33" fill="#90B7B4"></path>
            <path d="M164.068,261.085 C158.107,266.133 149.024,265.906 141.938,262.619 C138.265,260.915 134.745,258.238 133.463,254.397 C132.181,250.558 134.059,245.54 137.998,244.603 C139.526,244.239 141.133,244.503 142.695,244.332 C144.257,244.16 145.96,243.324 146.3,241.79 C146.534,240.732 146.055,239.667 145.695,238.645 C144.282,234.633 145.115,229.09 149.083,227.557 C158.418,223.949 161.83,234.184 168.491,233.372 C175.152,232.56 173.819,225.885 169.216,221.278 C164.748,216.807 160.99,201.03 172.33,191.777 C185.212,181.265 200.61,187.557 205.897,193.567 C211.448,199.876 210.208,209.724 205.897,215.989 C205.897,215.989 191.074,228.113 193.024,238.297 C194.974,248.481 164.068,261.085 164.068,261.085" id="Fill-34" fill="#8A649C"></path>
            <path d="M298.584,240.572 C298.584,240.572 268.114,272.73 265.685,272.51 C263.396,272.302 237.035,251.403 231.293,248.137 C223.476,243.691 213.23,241.939 189.723,242.517 C177.136,242.826 164.315,242.954 157.06,248.303 C152.136,252.159 133.034,288.153 126.453,290.166 C120.073,291.729 91.474,270.188 91.474,270.188 L87.012,276.383 C87.012,276.383 116.33,313.329 129.29,311.988 C136.776,311.245 154.865,291.27 157.522,285.995 C157.522,285.995 156.163,307.087 153.098,345.383 L236.199,345.383 C234.888,334.729 231.828,307.364 230.941,277.497 C230.941,277.497 256.243,295.725 267.457,292.806 C282.906,288.185 303.451,247.463 303.451,247.463 L298.584,240.572" id="Fill-35" fill="#F3C6D4"></path>
            <path d="M85.419,264.145 C85.419,264.145 81.254,261.643 77.033,256.715 C75.995,256.02 70.646,262.993 71.436,267.12 C72.125,269.201 76.716,272.572 78.293,273.305 C80.604,274.376 87.012,276.383 87.012,276.383 C87.012,276.383 91.951,274.919 91.474,270.188 C91.474,270.188 89.868,261.565 88.044,260.511 C85.984,259.319 84.094,256.283 83.391,256.87 C82.236,257.832 82.704,261.578 85.419,264.145" id="Fill-36" fill="#F3C6D4"></path>
            <path d="M311.592,238.188 C311.592,238.188 316.103,239.044 322.354,237.303 C323.604,237.304 324.501,245.461 321.547,248.449 C319.816,249.793 314.125,250.035 312.407,249.764 C309.89,249.367 303.451,247.463 303.451,247.463 C303.451,247.463 295.552,244.236 298.584,240.572 C298.584,240.572 308.34,233.768 310.443,233.908 C312.818,234.066 315.906,232.364 316.539,233.026 C317.706,234.247 315.277,237.569 311.592,238.188" id="Fill-37" fill="#F3C6D4"></path>
            <path d="M272.491,267.009 C268.974,270.321 266.332,272.568 265.685,272.51 C263.396,272.302 237.035,251.403 231.293,248.137 C223.476,243.691 213.23,241.939 189.723,242.517 C177.136,242.826 164.315,242.954 157.06,248.303 C152.136,252.159 133.034,288.153 126.453,290.166 C124.816,290.566 121.712,289.441 118.008,287.555 L109.838,300.966 C117.012,307.428 124.343,312.5 129.29,311.988 C136.776,311.245 154.865,291.27 157.522,285.995 C157.522,285.995 156.163,307.087 153.098,345.383 L236.199,345.383 C234.888,334.729 231.828,307.364 230.941,277.497 C230.941,277.497 256.243,295.725 267.457,292.806 C272.13,291.407 277.268,286.698 282.165,280.82 L272.491,267.009" id="Fill-38" fill="#F6BE6B"></path>
            <path d="M186.34,243.093 L187.029,224.462 L201.417,224.462 L201.132,242.41 L196.954,260.672 C196.371,263.223 192.793,263.371 192,260.878 L186.34,243.093" id="Fill-39" fill="#ECA9C2"></path>
            <path d="M208.375,208.248 C202.879,207.389 196.95,201.502 196.95,201.502 C192.841,210.619 179.115,215.996 179.115,215.996 C174.802,211.151 171.965,214.819 173.766,218.908 C175.567,222.996 179.06,223.779 179.06,223.779 C179.06,223.779 187.679,237.361 197.435,235.554 C210.352,233.161 208.375,208.248 208.375,208.248" id="Fill-40" fill="#F3C6D4"></path>
            <path d="M197.74,220.879 C198.141,220.802 198.7,220.619 199.289,220.188 C199.434,220.076 199.582,219.948 199.715,219.782 C199.784,219.701 199.846,219.609 199.901,219.504 L199.993,219.28 L200.008,219.026 C199.791,218.66 199.563,218.276 199.329,217.88 C198.439,216.443 197.544,215.266 196.95,214.7 C197.188,215.481 197.847,216.813 198.74,218.256 C198.854,218.435 198.965,218.611 199.075,218.784 L199.241,219.037 L199.347,219.188 L199.341,219.238 L199.239,219.438 C199.16,219.57 199.057,219.695 198.951,219.812 C198.514,220.276 198.05,220.617 197.74,220.879" id="Fill-41" fill="#E999B9"></path>
            <path d="M191.751,216.695 C191.961,217.833 191.209,218.926 190.072,219.137 C188.934,219.348 187.841,218.596 187.63,217.459 C187.419,216.321 188.171,215.228 189.309,215.017 C190.446,214.806 191.54,215.558 191.751,216.695" id="Fill-42" fill="#FFFFFE"></path>
            <path d="M189.965,218.306 C189.327,218.424 188.714,218.003 188.596,217.365 C188.479,216.728 188.899,216.114 189.537,215.997 C190.175,215.878 190.788,216.299 190.906,216.937 C191.024,217.575 190.603,218.188 189.965,218.306" id="Fill-43" fill="#353837"></path>
            <path d="M205.862,214.081 C206.073,215.219 205.321,216.312 204.184,216.522 C203.046,216.733 201.953,215.982 201.742,214.844 C201.531,213.707 202.283,212.613 203.42,212.403 C204.558,212.192 205.651,212.943 205.862,214.081" id="Fill-44" fill="#FFFFFE"></path>
            <path d="M204.077,215.691 C203.439,215.81 202.826,215.389 202.708,214.751 C202.59,214.113 203.011,213.501 203.649,213.382 C204.287,213.264 204.899,213.685 205.018,214.323 C205.136,214.961 204.714,215.573 204.077,215.691" id="Fill-45" fill="#353837"></path>
            <path d="M190.772,213.929 C190.423,213.633 189.572,213.354 188.613,213.584 C187.658,213.806 187.003,214.431 186.846,214.869 C187.292,214.737 187.971,214.45 188.773,214.263 C189.573,214.069 190.312,214.037 190.772,213.929" id="Fill-46" fill="#353837"></path>
            <path d="M201.747,211.896 C202.215,211.832 202.917,211.597 203.733,211.492 C204.549,211.379 205.286,211.403 205.75,211.367 C205.446,211.015 204.611,210.666 203.639,210.8 C202.662,210.929 201.966,211.495 201.747,211.896" id="Fill-47" fill="#353837"></path>
            <path d="M196.44,223.398 L201.347,222.49 C201.347,222.49 201.317,224.514 199.255,224.896 C197.193,225.277 196.44,223.398 196.44,223.398" id="Fill-48" fill="#FFFFFE"></path>
            <path d="M194.085,215.989 L193.717,216.058 C193.763,216.31 193.786,216.561 193.786,216.809 C193.786,218.744 192.407,220.469 190.433,220.834 C190.181,220.881 189.929,220.903 189.682,220.903 C187.746,220.903 186.022,219.524 185.657,217.55 C185.61,217.298 185.588,217.047 185.588,216.799 C185.588,214.863 186.967,213.139 188.94,212.774 C189.193,212.727 189.444,212.705 189.691,212.705 C191.627,212.705 193.352,214.084 193.717,216.058 L194.085,215.989 L194.454,215.921 C194.021,213.586 191.985,211.955 189.691,211.955 C189.399,211.955 189.102,211.981 188.804,212.037 C186.469,212.47 184.838,214.506 184.838,216.799 C184.838,217.092 184.864,217.389 184.919,217.687 C185.353,220.021 187.389,221.653 189.682,221.653 C189.975,221.653 190.272,221.627 190.57,221.571 C192.904,221.138 194.536,219.102 194.536,216.809 C194.536,216.516 194.509,216.219 194.454,215.921 L194.085,215.989" id="Fill-49" fill="#353837"></path>
            <path d="M208.152,213.383 L207.783,213.452 C207.83,213.704 207.852,213.955 207.852,214.203 C207.852,216.139 206.473,217.863 204.5,218.228 C204.247,218.275 203.995,218.297 203.748,218.297 C201.812,218.297 200.088,216.918 199.723,214.945 C199.676,214.692 199.654,214.441 199.654,214.193 C199.654,212.257 201.033,210.533 203.007,210.169 C203.26,210.122 203.511,210.099 203.759,210.099 C205.694,210.099 207.418,211.478 207.783,213.452 L208.152,213.383 L208.521,213.315 C208.087,210.981 206.052,209.349 203.759,209.349 C203.465,209.349 203.168,209.376 202.87,209.431 C200.535,209.864 198.904,211.9 198.904,214.193 C198.904,214.486 198.931,214.783 198.986,215.082 C199.419,217.416 201.455,219.047 203.748,219.047 C204.041,219.047 204.338,219.021 204.636,218.965 C206.971,218.532 208.602,216.496 208.602,214.203 C208.602,213.91 208.576,213.613 208.521,213.315 L208.152,213.383" id="Fill-50" fill="#353837"></path>
            <polyline id="Fill-51" fill="#353837" points="194.154 216.358 199.423 215.382 199.286 214.644 194.017 215.621"></polyline>
            <path d="M185.383,217.256 L179.21,215.633 C179.01,215.58 178.805,215.7 178.752,215.9 C178.699,216.101 178.819,216.306 179.019,216.358 L185.193,217.981 C185.393,218.034 185.598,217.914 185.651,217.714 C185.703,217.514 185.584,217.309 185.383,217.256" id="Fill-52" fill="#353837"></path>
            <path d="M282.337,157.764 C296.315,154.969 310.718,155.147 324.822,153.08 C335.285,151.546 345.625,148.751 355.092,144.041 C363.637,139.79 371.746,133.472 376.059,125.152 L376.059,119.147 C376.059,116.806 374.154,114.9 371.811,114.9 L266.645,114.9 C264.303,114.9 262.397,116.806 262.397,119.147 L262.397,165.844 C263.301,165.149 264.241,164.503 265.209,163.912 C270.41,160.729 276.357,158.96 282.337,157.764" id="Fill-53" fill="#FCE3B4"></path>
            <path d="M355.092,144.041 C345.625,148.751 335.285,151.546 324.822,153.08 C310.718,155.147 296.315,154.969 282.337,157.764 C276.357,158.96 270.41,160.729 265.209,163.912 C264.241,164.504 263.301,165.149 262.397,165.844 L262.397,192.655 C262.397,194.998 264.303,196.903 266.644,196.903 L331.929,196.903 C336.852,186.369 345.835,177.608 356.461,172.67 C362.643,169.797 369.286,168.148 376.059,167.541 L376.059,125.152 C371.746,133.472 363.637,139.79 355.092,144.041" id="Fill-54" fill="#FEEDD0"></path>
            <path d="M331.929,196.903 L371.811,196.903 C374.154,196.903 376.059,194.998 376.059,192.655 L376.059,167.541 C369.286,168.148 362.643,169.797 356.461,172.67 C345.834,177.608 336.852,186.369 331.929,196.903" id="Fill-55" fill="#FCE3B4"></path>
            <path d="M364.895,187.505 C356.546,182.391 338.008,182.241 324.393,180.958 C310.983,179.694 289.764,182.45 283.375,185.325 C280.343,186.69 275.065,192.851 269.343,200.542 L373.322,200.542 C371.558,194.854 369.003,190.022 364.895,187.505" id="Fill-56" fill="#EA8C5E"></path>
            <path d="M301.105,144.03 C301.105,144.03 288.709,134.769 291.63,123.319 C293.995,114.048 307.288,124.325 307.288,124.325 C307.288,124.325 305.753,117.779 311.892,117.736 C315.238,117.713 322.136,123.713 322.136,123.713 C322.136,123.713 339.774,126.983 340.999,135.707 C342.224,144.432 337.453,158.808 330.884,160.19 C324.316,161.574 301.105,144.03 301.105,144.03" id="Fill-57" fill="#486AA5"></path>
            <path d="M328.069,181.287 L327.31,160.772 L311.469,160.772 L311.3,180.931 L315.993,193.932 C316.811,196.196 319.923,196.426 321.064,194.305 L328.069,181.287" id="Fill-58" fill="#ED9C97"></path>
            <path d="M299.569,146.305 C299.569,146.305 301.842,173.255 315.678,173.255 C329.904,173.255 331.781,156.128 331.781,156.128 C331.781,156.128 334.567,155.49 335.968,150.775 C337.076,147.044 334.567,144.536 332.577,148.145 C332.577,148.145 331.613,148.348 330.692,147.483 C330.692,147.483 331.403,142.222 330.483,139.001 C329.563,135.779 307.399,148.799 300.409,138.32 C300.409,138.32 299.099,141.017 299.569,146.305" id="Fill-59" fill="#F1B4AC"></path>
            <path d="M314.558,156.394 C314.052,156.473 313.319,156.623 312.508,156.557 C312.311,156.53 312.107,156.497 311.933,156.415 C311.838,156.384 311.766,156.325 311.687,156.277 L311.637,156.23 L311.64,156.216 C311.643,156.228 311.661,156.036 311.689,155.942 C311.714,155.826 311.738,155.708 311.775,155.585 C311.837,155.343 311.918,155.093 311.995,154.839 C312.675,152.808 313.348,151.026 313.575,150.014 C312.968,150.856 312.035,152.524 311.331,154.626 C311.25,154.893 311.169,155.154 311.11,155.422 C311.075,155.552 311.052,155.689 311.031,155.826 C311.002,155.982 310.998,156.043 310.985,156.305 L310.974,156.482 L311.105,156.603 C311.213,156.694 311.282,156.759 311.337,156.79 C311.469,156.861 311.599,156.934 311.733,156.967 C312,157.055 312.256,157.064 312.493,157.062 C313.438,157.002 314.119,156.666 314.558,156.394" id="Fill-60" fill="#965955"></path>
            <path d="M319.412,151.106 C319.412,152.38 320.444,153.413 321.719,153.413 C322.993,153.413 324.025,152.38 324.025,151.106 C324.025,149.832 322.993,148.799 321.719,148.799 C320.444,148.799 319.412,149.832 319.412,151.106" id="Fill-61" fill="#FFFFFE"></path>
            <path d="M321.129,153.274 C321.843,153.274 322.422,152.695 322.422,151.981 C322.422,151.267 321.843,150.689 321.129,150.689 C320.415,150.689 319.836,151.267 319.836,151.981 C319.836,152.695 320.415,153.274 321.129,153.274" id="Fill-62" fill="#353837"></path>
            <path d="M303.609,151.106 C303.609,152.38 304.642,153.413 305.916,153.413 C307.19,153.413 308.223,152.38 308.223,151.106 C308.223,149.832 307.19,148.799 305.916,148.799 C304.642,148.799 303.609,149.832 303.609,151.106" id="Fill-63" fill="#FFFFFE"></path>
            <path d="M305.327,153.413 C306.041,153.413 306.62,152.834 306.62,152.12 C306.62,151.406 306.041,150.827 305.327,150.827 C304.612,150.827 304.034,151.406 304.034,152.12 C304.034,152.834 304.612,153.413 305.327,153.413" id="Fill-64" fill="#353837"></path>
            <path d="M324.497,147.939 C324.473,147.924 323.467,147.235 321.935,147.233 C321.303,147.233 320.583,147.352 319.816,147.685 C319.69,147.74 319.632,147.888 319.687,148.014 C319.742,148.141 319.889,148.199 320.016,148.144 C320.717,147.839 321.365,147.733 321.935,147.733 C322.624,147.733 323.199,147.89 323.6,148.047 C323.8,148.125 323.957,148.203 324.062,148.261 L324.18,148.329 L324.214,148.351 C324.328,148.429 324.484,148.4 324.562,148.286 C324.64,148.173 324.611,148.017 324.497,147.939" id="Fill-65" fill="#353837"></path>
            <path d="M303.53,148.351 L303.565,148.329 C303.745,148.217 304.604,147.732 305.809,147.733 C306.379,147.733 307.027,147.839 307.729,148.144 C307.855,148.199 308.002,148.141 308.057,148.014 C308.112,147.888 308.054,147.74 307.928,147.685 C307.161,147.352 306.441,147.233 305.809,147.233 C304.277,147.235 303.271,147.924 303.247,147.939 C303.133,148.017 303.104,148.173 303.182,148.286 C303.261,148.4 303.416,148.429 303.53,148.351" id="Fill-66" fill="#353837"></path>
            <path d="M301.914,158.157 C301.914,158.157 318.854,158.618 328.069,157.572 C328.772,156.751 329.817,152.421 330.191,151.824 C330.564,151.227 331.999,151.525 332.29,151.824 C332.58,152.122 332.663,160.901 331.023,167.384 C329.383,173.866 311.305,173.93 307.076,172.58 C304.538,171.769 301.914,158.157 301.914,158.157" id="Fill-67" fill="#486AA5"></path>
            <path d="M309.442,160.19 C309.941,160.747 311.202,161.659 312.938,161.699 C314.673,161.733 316,160.822 316.421,160.19 C315.723,160.502 314.456,161.032 312.951,161.001 C311.445,160.973 310.185,160.41 309.442,160.19" id="Fill-68" fill="#DD7C78"></path>
            <path d="M266.645,114.9 C264.303,114.9 262.397,116.806 262.397,119.147 L262.397,192.655 C262.397,194.998 264.303,196.903 266.645,196.903 L371.811,196.903 C374.154,196.903 376.059,194.998 376.059,192.655 L376.059,119.147 C376.059,116.806 374.154,114.9 371.811,114.9 L266.645,114.9 Z M371.811,202.363 L266.645,202.363 C261.292,202.363 256.938,198.008 256.938,192.655 L256.938,119.147 C256.938,113.795 261.292,109.44 266.645,109.44 L371.811,109.44 C377.164,109.44 381.519,113.795 381.519,119.147 L381.519,192.655 C381.519,198.008 377.164,202.363 371.811,202.363 Z" id="Fill-69" fill="#5B7F89"></path>
            <path d="M372.028,121.434 C372.028,123.263 370.545,124.747 368.715,124.747 C366.886,124.747 365.403,123.263 365.403,121.434 C365.403,119.604 366.886,118.121 368.715,118.121 C370.545,118.121 372.028,119.604 372.028,121.434" id="Fill-70" fill="#5B7F89"></path>
            <path d="M362.201,122.879 L347.373,122.879 C346.635,122.879 346.037,122.281 346.037,121.543 L346.037,121.324 C346.037,120.586 346.635,119.988 347.373,119.988 L362.201,119.988 C362.938,119.988 363.537,120.586 363.537,121.324 L363.537,121.543 C363.537,122.281 362.938,122.879 362.201,122.879" id="Fill-71" fill="#5B7F89"></path>
            <polygon id="Fill-72" fill="#5B7F89" points="267.812 120.163 274.25 120.163 274.25 119.253 267.812 119.253"></polygon>
            <polygon id="Fill-73" fill="#5B7F89" points="267.812 122.194 274.25 122.194 274.25 121.284 267.812 121.284"></polygon>
            <polygon id="Fill-74" fill="#5B7F89" points="267.812 124.227 274.25 124.227 274.25 123.317 267.812 123.317"></polygon>
            <path d="M277.339,190.593 L273.541,190.593 C271.966,190.593 270.689,189.316 270.689,187.741 L270.689,187.273 C270.689,185.698 271.966,184.421 273.541,184.421 L285.873,184.421 C284.892,184.718 284.051,185.021 283.375,185.325 C281.853,186.01 279.765,187.904 277.339,190.593" id="Fill-75" fill="#FFFCF8"></path>
            <path d="M308.828,190.593 L277.339,190.593 C279.765,187.904 281.853,186.01 283.375,185.325 C284.051,185.021 284.892,184.718 285.873,184.421 L308.828,184.421 C310.403,184.421 311.68,185.698 311.68,187.273 L311.68,187.741 C311.68,189.316 310.403,190.593 308.828,190.593" id="Fill-76" fill="#FDE8DA"></path>
            <path d="M587.135,353.533 C572.59,350.114 558.987,343.423 544.486,339.823 C530.263,336.292 515.29,335.826 500.87,338.439 L500.87,365.716 C500.87,368.059 502.775,369.964 505.117,369.964 L610.284,369.964 C612.627,369.964 614.532,368.059 614.532,365.716 L614.532,354.383 C605.688,356.294 596.03,355.624 587.135,353.533" id="Fill-77" fill="#C3E3DD"></path>
            <path d="M550.935,325.251 C558.316,330.048 567.334,331.908 576.134,331.712 C590.189,331.399 604.054,325.885 614.532,316.519 L614.532,292.209 C614.532,289.867 612.627,287.962 610.284,287.962 L510.868,287.962 C516.739,291.638 522.405,295.611 527.3,300.488 C535.412,308.568 541.333,319.014 550.935,325.251" id="Fill-78" fill="#C3E3DD"></path>
            <path d="M576.134,331.712 C567.334,331.908 558.316,330.048 550.935,325.251 C541.333,319.014 535.412,308.568 527.3,300.488 C522.405,295.611 516.739,291.638 510.868,287.962 L505.117,287.962 C502.775,287.962 500.87,289.867 500.87,292.209 L500.87,338.439 C515.29,335.826 530.263,336.292 544.486,339.823 C558.987,343.423 572.59,350.114 587.135,353.533 C596.03,355.624 605.688,356.294 614.532,354.383 L614.532,316.519 C604.054,325.885 590.189,331.399 576.134,331.712" id="Fill-79" fill="#9CD3CA"></path>
            <path d="M540.404,317.942 C540.404,317.942 530.68,310.441 535.432,299.26 C539.448,289.808 562.828,293.769 568.344,299.381 C571.526,302.62 567.663,306.225 573.457,308.034 C583.33,311.118 575.906,333.05 568.102,333.56 L540.404,317.942" id="Fill-80" fill="#E06641"></path>
            <path d="M596.473,359.908 C588.124,354.794 576.481,355.302 562.866,354.019 C549.456,352.755 528.237,355.512 521.848,358.386 C518.815,359.75 512.724,366.275 510.629,374.133 L605.058,374.133 C603.294,368.444 600.581,362.425 596.473,359.908" id="Fill-81" fill="#486AA5"></path>
            <path d="M566.542,354.348 L565.783,333.834 L549.941,333.834 L549.773,353.991 L549.773,353.992 C552.403,361.277 562.416,362.016 566.086,355.194 L566.542,354.348" id="Fill-82" fill="#ED9C97"></path>
            <path d="M538.364,319.613 C538.364,319.613 539.872,344.164 553.708,344.164 C567.934,344.164 570.254,329.189 570.254,329.189 C570.254,329.189 573.04,328.552 574.44,323.836 C575.549,320.105 573.04,317.597 571.05,321.206 C571.05,321.206 570.086,321.409 569.166,320.544 C569.166,320.544 568.71,316.655 567.789,313.434 C566.869,310.212 540.263,321.206 538.882,311.381 C538.882,311.381 537.894,314.325 538.364,319.613" id="Fill-83" fill="#F1B4AC"></path>
            <path d="M553.031,329.454 C552.576,329.281 551.924,329.082 551.144,328.855 C550.949,328.798 550.746,328.738 550.537,328.678 L550.22,328.584 C550.092,328.548 550.158,328.559 550.123,328.546 L550.132,328.522 L550.204,328.199 C550.269,327.977 550.335,327.748 550.417,327.514 C551.085,325.645 551.8,324.013 552.048,323.075 C551.43,323.824 550.459,325.327 549.756,327.29 C549.67,327.536 549.601,327.789 549.538,328.038 L549.469,328.429 L549.445,328.772 L549.434,328.941 L549.429,329.025 L549.499,329.053 C549.692,329.098 549.883,329.143 550.07,329.186 C550.184,329.207 550.294,329.229 550.403,329.249 C550.623,329.283 550.835,329.316 551.039,329.349 C551.856,329.459 552.545,329.487 553.031,329.454" id="Fill-84" fill="#965955"></path>
            <path d="M557.885,324.167 C557.885,325.44 558.918,326.474 560.191,326.474 C561.466,326.474 562.498,325.44 562.498,324.167 C562.498,322.893 561.466,321.86 560.191,321.86 C558.918,321.86 557.885,322.893 557.885,324.167" id="Fill-85" fill="#FFFFFE"></path>
            <path d="M560.382,325.391 C561.096,325.391 561.675,324.812 561.675,324.098 C561.675,323.384 561.096,322.805 560.382,322.805 C559.668,322.805 559.089,323.384 559.089,324.098 C559.089,324.812 559.668,325.391 560.382,325.391" id="Fill-86" fill="#353837"></path>
            <path d="M542.082,324.167 C542.082,325.44 543.115,326.474 544.389,326.474 C545.663,326.474 546.696,325.44 546.696,324.167 C546.696,322.893 545.663,321.86 544.389,321.86 C543.115,321.86 542.082,322.893 542.082,324.167" id="Fill-87" fill="#FFFFFE"></path>
            <path d="M544.579,325.529 C545.293,325.529 545.872,324.95 545.872,324.236 C545.872,323.522 545.293,322.943 544.579,322.943 C543.865,322.943 543.286,323.522 543.286,324.236 C543.286,324.95 543.865,325.529 544.579,325.529" id="Fill-88" fill="#353837"></path>
            <path d="M563.04,320.897 C563.005,320.874 561.979,320.172 560.408,320.169 C559.76,320.169 559.022,320.292 558.239,320.632 C558.049,320.714 557.962,320.935 558.045,321.125 C558.127,321.315 558.348,321.402 558.538,321.32 C559.224,321.022 559.854,320.919 560.408,320.919 C561.078,320.919 561.637,321.072 562.027,321.224 C562.222,321.3 562.373,321.376 562.474,321.431 L562.586,321.496 L562.612,321.513 L562.616,321.515 C562.787,321.632 563.02,321.589 563.137,321.418 C563.254,321.247 563.211,321.014 563.04,320.897" id="Fill-89" fill="#353837"></path>
            <path d="M542.073,321.515 L542.078,321.513 C542.153,321.462 543.027,320.917 544.282,320.919 C544.836,320.919 545.466,321.022 546.151,321.32 C546.341,321.402 546.562,321.315 546.645,321.125 C546.727,320.935 546.64,320.714 546.45,320.632 C545.668,320.292 544.93,320.169 544.282,320.169 C542.711,320.172 541.685,320.874 541.649,320.897 C541.478,321.014 541.435,321.247 541.552,321.418 C541.669,321.589 541.903,321.633 542.073,321.515" id="Fill-90" fill="#353837"></path>
            <path d="M554.618,331.453 L549.323,331.453 C549.323,331.453 549.746,333.56 551.971,333.56 C554.196,333.56 554.618,331.453 554.618,331.453" id="Fill-91" fill="#FFFFFE"></path>
            <path d="M505.117,287.961 C502.775,287.961 500.87,289.867 500.87,292.208 L500.87,365.716 C500.87,368.059 502.775,369.964 505.117,369.964 L610.284,369.964 C612.627,369.964 614.532,368.059 614.532,365.716 L614.532,292.208 C614.532,289.867 612.627,287.961 610.284,287.961 L505.117,287.961 Z M610.284,375.424 L505.117,375.424 C499.765,375.424 495.41,371.069 495.41,365.716 L495.41,292.208 C495.41,286.855 499.765,282.501 505.117,282.501 L610.284,282.501 C615.638,282.501 619.992,286.855 619.992,292.208 L619.992,365.716 C619.992,371.069 615.638,375.424 610.284,375.424 Z" id="Fill-92" fill="#5B7F89"></path>
            <path d="M610.501,294.495 C610.501,296.324 609.019,297.808 607.188,297.808 C605.358,297.808 603.876,296.324 603.876,294.495 C603.876,292.665 605.358,291.182 607.188,291.182 C609.019,291.182 610.501,292.665 610.501,294.495" id="Fill-93" fill="#5B7F89"></path>
            <path d="M600.674,295.94 L585.846,295.94 C585.108,295.94 584.51,295.342 584.51,294.605 L584.51,294.385 C584.51,293.647 585.108,293.05 585.846,293.05 L600.674,293.05 C601.412,293.05 602.01,293.647 602.01,294.385 L602.01,294.605 C602.01,295.342 601.412,295.94 600.674,295.94" id="Fill-94" fill="#5B7F89"></path>
            <polygon id="Fill-95" fill="#5B7F89" points="506.285 293.224 512.724 293.224 512.724 292.314 506.285 292.314"></polygon>
            <polygon id="Fill-96" fill="#5B7F89" points="506.285 295.255 512.724 295.255 512.724 294.346 506.285 294.346"></polygon>
            <polygon id="Fill-97" fill="#5B7F89" points="506.285 297.288 512.724 297.288 512.724 296.378 506.285 296.378"></polygon>
            <path d="M516.02,363.653 L512.014,363.653 C510.438,363.653 509.162,362.377 509.162,360.802 L509.162,360.334 C509.162,358.76 510.438,357.482 512.014,357.482 L524.346,357.482 C523.365,357.779 522.523,358.082 521.848,358.386 C520.363,359.054 518.144,360.96 516.02,363.653" id="Fill-98" fill="#F7FBF9"></path>
            <path d="M547.302,363.653 L516.02,363.653 C518.144,360.96 520.363,359.054 521.848,358.386 C522.523,358.082 523.365,357.779 524.346,357.482 L547.302,357.482 C548.876,357.482 550.152,358.76 550.152,360.334 L550.152,360.802 C550.152,362.377 548.876,363.653 547.302,363.653" id="Fill-99" fill="#DBE5ED"></path>
            <path d="M460.559,231.479 C456.41,228.241 450.643,228.45 445.381,228.544 C440.119,228.638 434.183,228.164 430.772,224.157 C428.891,221.946 428.131,219.025 427.336,216.234 C426.254,212.432 424.966,208.595 422.556,205.462 C418.577,200.29 411.961,197.69 405.459,197.142 C404.837,197.089 404.215,197.067 403.593,197.046 L403.593,240.009 C403.593,242.352 405.498,244.257 407.84,244.257 L467.551,244.257 C466.984,242.609 466.413,240.963 465.766,239.347 C464.583,236.392 463.068,233.437 460.559,231.479" id="Fill-100" fill="#F0D0DB"></path>
            <path d="M490.892,198.694 C479.372,195.182 471.115,184.893 465.998,173.991 C464.25,170.266 462.774,166.295 462.067,162.255 L407.84,162.255 C405.498,162.255 403.593,164.16 403.593,166.502 L403.593,197.046 C404.215,197.067 404.837,197.089 405.459,197.142 C411.961,197.69 418.577,200.291 422.556,205.462 C424.966,208.595 426.254,212.432 427.336,216.233 C428.131,219.025 428.891,221.946 430.771,224.157 C434.183,228.164 440.119,228.638 445.381,228.544 C450.644,228.45 456.41,228.241 460.559,231.479 C463.068,233.438 464.583,236.392 465.766,239.347 C466.413,240.963 466.984,242.609 467.551,244.257 L513.006,244.257 C515.349,244.257 517.254,242.352 517.254,240.009 L517.254,204.134 C517.011,204.007 516.775,203.866 516.526,203.749 C508.621,200.013 499.255,201.244 490.892,198.694" id="Fill-101" fill="#DBB4CB"></path>
            <path d="M513.006,162.255 L462.067,162.255 C462.774,166.295 464.25,170.266 465.998,173.991 C471.115,184.893 479.372,195.182 490.892,198.694 C499.255,201.244 508.621,200.013 516.526,203.749 C516.775,203.866 517.011,204.007 517.254,204.134 L517.254,166.502 C517.254,164.16 515.349,162.255 513.006,162.255" id="Fill-102" fill="#F0D0DB"></path>
            <path d="M476.846,235.25 C480.072,235.478 483.335,235.189 486.472,234.398 C487.396,234.166 488.335,233.876 489.076,233.277 C489.98,232.547 490.488,231.438 490.846,230.333 C491.715,227.639 491.856,224.713 491.252,221.948 C490.979,220.697 490.553,219.454 490.614,218.175 C490.787,214.513 494.706,212.137 495.801,208.638 C496.205,207.345 496.196,205.925 495.774,204.637 C495.107,202.602 493.449,200.889 493.302,198.751 C493.065,195.327 496.795,192.452 496.24,189.064 C495.493,184.504 487.906,183.531 487.488,178.93 C487.354,177.451 488.069,176.009 488.043,174.524 C487.99,171.545 484.992,169.409 482.074,168.807 C480.194,168.419 478.124,168.404 476.594,167.245 C475.354,166.304 474.718,164.785 473.737,163.575 C472.196,161.674 469.721,160.569 467.276,160.693 C463.93,160.863 461.03,163.133 457.725,163.681 C454.869,164.154 451.75,163.341 449.162,164.639 C445.516,166.467 444.744,171.511 441.517,174.007 C440.339,174.918 438.891,175.438 437.739,176.384 C436.087,177.743 435.194,179.971 435.451,182.095 C435.659,183.809 436.556,185.413 436.559,187.14 C436.562,188.625 435.903,190.021 435.581,191.471 C434.766,195.137 436.313,199.219 439.354,201.424 C440.643,202.357 442.234,202.977 443.813,202.786 L459.941,213.456 L460.426,224.946 L476.846,235.25" id="Fill-103" fill="#23212D"></path>
            <path d="M502.752,234.202 C493.635,229.087 480.92,229.596 466.052,228.313 C451.405,227.048 428.233,229.805 421.256,232.68 C417.944,234.044 411.291,240.569 409.004,248.426 L512.127,248.426 C510.201,242.738 507.238,236.718 502.752,234.202" id="Fill-104" fill="#E67DA7"></path>
            <polyline id="Fill-105" fill="#9A625E" points="459.068 247.244 468.635 228.916 467.828 209.233 452.618 209.233 452.458 228.49 459.068 247.244"></polyline>
            <path d="M452.146,186.152 C452.146,186.152 460.426,196.375 472.94,196.278 C476.491,190.413 480.146,193.679 479.062,198.275 C477.977,202.872 474.497,204.358 474.497,204.358 C474.497,204.358 468.152,220.137 457.664,220.137 C443.776,220.137 440.356,194.132 440.356,194.132 C445.903,192.18 452.146,186.152 452.146,186.152" id="Fill-106" fill="#B8736B"></path>
            <path d="M454.521,205.273 C454.142,205.065 453.584,204.802 453.03,204.398 C452.771,204.228 452.447,203.824 452.562,203.895 L452.576,203.889 L452.684,203.788 C452.764,203.703 452.835,203.61 452.911,203.52 C453.065,203.339 453.184,203.133 453.311,202.928 C454.229,201.224 454.261,199.55 454.152,198.699 C453.853,199.508 453.525,201.073 452.704,202.583 C452.592,202.762 452.492,202.948 452.366,203.104 L452.187,203.34 L451.868,203.682 L451.774,203.789 L451.818,203.913 L451.964,204.16 C452.091,204.34 452.152,204.397 452.242,204.476 C452.411,204.629 452.591,204.734 452.764,204.828 C453.463,205.173 454.085,205.263 454.521,205.273" id="Fill-107" fill="#965955"></path>
            <path d="M459.941,199.439 C459.941,200.662 460.933,201.654 462.156,201.654 C463.38,201.654 464.371,200.662 464.371,199.439 C464.371,198.216 463.38,197.224 462.156,197.224 C460.933,197.224 459.941,198.216 459.941,199.439" id="Fill-108" fill="#FFFFFE"></path>
            <path d="M461.667,200.769 C462.353,200.769 462.908,200.213 462.908,199.528 C462.908,198.842 462.353,198.287 461.667,198.287 C460.981,198.287 460.426,198.842 460.426,199.528 C460.426,200.213 460.981,200.769 461.667,200.769" id="Fill-109" fill="#353837"></path>
            <path d="M444.77,199.439 C444.77,200.662 445.761,201.654 446.984,201.654 C448.207,201.654 449.199,200.662 449.199,199.439 C449.199,198.216 448.207,197.224 446.984,197.224 C445.761,197.224 444.77,198.216 444.77,199.439" id="Fill-110" fill="#FFFFFE"></path>
            <path d="M446.495,200.769 C447.181,200.769 447.736,200.213 447.736,199.528 C447.736,198.842 447.181,198.287 446.495,198.287 C445.81,198.287 445.253,198.842 445.253,199.528 C445.253,200.213 445.81,200.769 446.495,200.769" id="Fill-111" fill="#353837"></path>
            <path d="M460.426,196.375 C460.919,196.388 461.695,196.27 462.568,196.317 C463.443,196.357 464.205,196.534 464.688,196.596 C464.434,196.181 463.634,195.667 462.603,195.62 C461.566,195.566 460.736,196.011 460.426,196.375" id="Fill-112" fill="#353837"></path>
            <path d="M448.626,196.375 C448.315,196.011 447.485,195.566 446.449,195.62 C445.418,195.667 444.618,196.181 444.363,196.596 C444.847,196.534 445.608,196.357 446.482,196.317 C447.356,196.27 448.133,196.388 448.626,196.375" id="Fill-113" fill="#353837"></path>
            <path d="M451.554,207.168 C451.83,207.585 452.639,208.232 453.795,208.26 C454.949,208.283 455.811,207.63 456.031,207.168 C455.533,207.311 454.73,207.583 453.808,207.563 C452.883,207.547 452.074,207.248 451.554,207.168" id="Fill-114" fill="#E98A89"></path>
            <path d="M407.84,162.255 C405.498,162.255 403.593,164.16 403.593,166.502 L403.593,240.01 C403.593,242.352 405.498,244.257 407.84,244.257 L513.006,244.257 C515.349,244.257 517.254,242.352 517.254,240.01 L517.254,166.502 C517.254,164.16 515.349,162.255 513.006,162.255 L407.84,162.255 M513.006,249.717 L407.84,249.717 C402.487,249.717 398.133,245.363 398.133,240.01 L398.133,166.502 C398.133,161.149 402.487,156.795 407.84,156.795 L513.006,156.795 C518.359,156.795 522.714,161.149 522.714,166.502 L522.714,240.01 C522.714,245.363 518.359,249.717 513.006,249.717" id="Fill-115" fill="#5B7F89"></path>
            <path d="M513.224,168.789 C513.224,170.618 511.74,172.101 509.911,172.101 C508.081,172.101 506.598,170.618 506.598,168.789 C506.598,166.959 508.081,165.476 509.911,165.476 C511.74,165.476 513.224,166.959 513.224,168.789" id="Fill-116" fill="#5B7F89"></path>
            <path d="M503.396,170.233 L488.568,170.233 C487.83,170.233 487.232,169.636 487.232,168.898 L487.232,168.679 C487.232,167.941 487.83,167.343 488.568,167.343 L503.396,167.343 C504.134,167.343 504.731,167.941 504.731,168.679 L504.731,168.898 C504.731,169.636 504.134,170.233 503.396,170.233" id="Fill-117" fill="#5B7F89"></path>
            <polygon id="Fill-118" fill="#5B7F89" points="409.007 167.517 415.445 167.517 415.445 166.607 409.007 166.607"></polygon>
            <polygon id="Fill-119" fill="#5B7F89" points="409.007 169.549 415.445 169.549 415.445 168.639 409.007 168.639"></polygon>
            <polygon id="Fill-120" fill="#5B7F89" points="409.007 171.581 415.445 171.581 415.445 170.671 409.007 170.671"></polygon>
            <path d="M414.892,237.947 L414.736,237.947 C413.161,237.947 411.885,236.67 411.885,235.096 L411.885,234.627 C411.885,233.053 413.161,231.776 414.736,231.776 L423.983,231.776 C422.912,232.073 421.993,232.376 421.256,232.68 C419.634,233.348 417.211,235.254 414.892,237.947" id="Fill-121" fill="#FFF8F8"></path>
            <path d="M450.023,237.947 L414.892,237.947 C417.211,235.254 419.634,233.348 421.256,232.68 C421.993,232.376 422.912,232.073 423.983,231.776 L450.023,231.776 C451.599,231.776 452.875,233.053 452.875,234.627 L452.875,235.096 C452.875,236.67 451.599,237.947 450.023,237.947" id="Fill-122" fill="#FAE3E8"></path>
            <path d="M406.394,294.479 C413.767,288.624 418.5,280.217 423.625,272.284 L340.444,272.284 C338.102,272.284 336.197,274.189 336.197,276.531 L336.197,317.653 C351.474,311.019 368.595,308.787 384.789,304.304 C392.466,302.179 400.155,299.432 406.394,294.479" id="Fill-123" fill="#BBDBAA"></path>
            <path d="M399.235,340.564 C406.512,336.413 415.187,335.776 423.515,334.877 C431.843,333.977 440.589,332.528 447.058,327.206 C448.073,326.37 448.997,325.455 449.858,324.486 L449.858,276.531 C449.858,274.189 447.953,272.284 445.61,272.284 L423.625,272.284 C418.5,280.217 413.767,288.624 406.393,294.479 C400.155,299.432 392.466,302.179 384.789,304.304 C368.595,308.787 351.474,311.019 336.197,317.653 L336.197,350.039 C336.197,352.382 338.102,354.287 340.444,354.287 L384.058,354.287 C388.84,349.381 393.287,343.956 399.235,340.564" id="Fill-124" fill="#E0EDCD"></path>
            <path d="M447.058,327.206 C440.589,332.528 431.843,333.977 423.515,334.877 C415.187,335.776 406.512,336.413 399.235,340.564 C393.287,343.956 388.84,349.381 384.058,354.287 L445.61,354.287 C447.953,354.287 449.858,352.382 449.858,350.039 L449.858,324.486 C448.997,325.455 448.073,326.37 447.058,327.206" id="Fill-125" fill="#BBDBAA"></path>
            <path d="M408.889,288.122 C416.107,285.392 424.969,287.884 429.706,293.977 C432.105,297.064 433.46,301.354 431.877,304.929 C430.476,308.095 427.21,309.922 424.692,312.299 C423.243,313.666 421.936,315.52 422.243,317.488 C422.473,318.957 423.557,320.139 424.68,321.112 C425.979,322.237 427.406,323.227 428.55,324.51 C429.692,325.792 430.546,327.461 430.38,329.171 C429.928,333.822 422.856,335.419 422.132,340.036 C421.897,341.533 422.414,343.034 422.61,344.537 C422.932,346.995 422.31,349.654 420.578,351.428 C418.847,353.2 415.596,354.302 413.775,352.62 C408.087,347.365 403.015,338.926 409.754,330.738 C415.088,324.259 417.912,323.123 414.165,318.647 C410.418,314.17 412.806,308.99 417.191,305.497 C420.524,302.843 417.1,298.362 414.659,298.648 L408.889,288.122" id="Fill-126" fill="#704732"></path>
            <path d="M376.512,310.121 C376.512,310.121 366.271,293.993 380.612,282.033 C394.954,270.073 415.239,284.168 417.21,297.327 C418.565,306.377 413.522,321.824 398.986,323.72 L376.512,310.121" id="Fill-127" fill="#704732"></path>
            <path d="M432.696,344.231 C424.154,339.117 412.241,339.625 398.31,338.342 C384.587,337.078 362.876,339.834 356.338,342.709 C353.235,344.073 347.001,350.599 344.858,358.456 L441.48,358.456 C439.676,352.768 436.9,346.748 432.696,344.231" id="Fill-128" fill="#8A649C"></path>
            <polyline id="Fill-129" fill="#ED9C97" points="391.673 357.273 401.238 338.945 400.432 319.263 385.223 319.263 385.062 338.52 391.673 357.273"></polyline>
            <path d="M387.861,294.553 C387.861,294.553 394.501,305.909 406.887,307.705 C411.282,302.443 414.402,306.224 412.636,310.604 C410.868,314.983 407.204,315.927 407.204,315.927 C407.204,315.927 398.549,330.565 388.181,328.98 C374.453,326.883 375.001,300.659 375.001,300.659 C380.779,299.568 387.861,294.553 387.861,294.553" id="Fill-130" fill="#F1B4AC"></path>
            <path d="M387.526,312.461 C387.081,312.387 386.443,312.338 385.716,312.233 C385.538,312.202 385.348,312.173 385.182,312.12 C385.063,312.087 385.101,312.086 385.085,312.076 L385.091,312.048 L385.104,312.034 L385.172,311.903 L385.336,311.626 C385.455,311.439 385.576,311.246 385.7,311.052 C386.721,309.491 387.594,308.092 387.948,307.259 C387.258,307.846 386.158,309.077 385.113,310.674 C384.983,310.874 384.861,311.078 384.745,311.28 L384.58,311.592 L384.504,311.759 C384.462,311.848 384.418,311.95 384.412,312.042 C384.409,312.133 384.37,312.23 384.396,312.311 L384.595,312.503 C384.711,312.627 384.974,312.681 385.047,312.691 C385.278,312.734 385.482,312.734 385.681,312.737 C386.465,312.722 387.092,312.594 387.526,312.461" id="Fill-131" fill="#D7897F"></path>
            <path d="M393.56,308.865 C393.374,310.074 394.205,311.204 395.414,311.389 C396.623,311.573 397.753,310.743 397.938,309.534 C398.123,308.325 397.292,307.195 396.083,307.01 C394.874,306.825 393.744,307.655 393.56,308.865" id="Fill-132" fill="#FFFFFE"></path>
            <path d="M394.792,310.31 C395.47,310.413 396.104,309.947 396.207,309.27 C396.311,308.592 395.845,307.958 395.167,307.855 C394.489,307.751 393.856,308.217 393.752,308.895 C393.648,309.572 394.114,310.205 394.792,310.31" id="Fill-133" fill="#353837"></path>
            <path d="M378.562,306.572 C378.376,307.781 379.207,308.912 380.416,309.097 C381.625,309.281 382.755,308.451 382.939,307.242 C383.125,306.032 382.294,304.902 381.085,304.718 C379.876,304.533 378.746,305.363 378.562,306.572" id="Fill-134" fill="#FFFFFE"></path>
            <path d="M379.794,308.017 C380.472,308.12 381.105,307.655 381.209,306.978 C381.313,306.3 380.847,305.666 380.169,305.563 C379.491,305.459 378.857,305.924 378.754,306.602 C378.65,307.279 379.116,307.913 379.794,308.017" id="Fill-135" fill="#353837"></path>
            <path d="M394.501,305.909 C394.986,305.997 395.771,305.997 396.628,306.176 C397.486,306.348 398.213,306.638 398.681,306.772 C398.492,306.323 397.779,305.694 396.767,305.492 C395.75,305.282 394.863,305.597 394.501,305.909" id="Fill-136" fill="#353837"></path>
            <path d="M382.837,304.126 C382.584,303.72 381.831,303.155 380.799,303.052 C379.772,302.942 378.903,303.329 378.59,303.701 C379.076,303.713 379.856,303.653 380.727,303.746 C381.598,303.831 382.347,304.064 382.837,304.126" id="Fill-137" fill="#353837"></path>
            <path d="M384.1,315.238 C384.31,315.692 385.012,316.454 386.149,316.656 C387.287,316.854 388.238,316.338 388.525,315.914 C388.012,315.98 387.178,316.128 386.268,315.969 C385.355,315.814 384.603,315.396 384.1,315.238" id="Fill-138" fill="#E98A89"></path>
            <path d="M340.444,272.284 C338.102,272.284 336.197,274.189 336.197,276.531 L336.197,350.039 C336.197,352.382 338.102,354.287 340.444,354.287 L445.61,354.287 C447.953,354.287 449.858,352.382 449.858,350.039 L449.858,276.531 C449.858,274.189 447.953,272.284 445.61,272.284 L340.444,272.284 M445.61,359.747 L340.444,359.747 C335.091,359.747 330.737,355.393 330.737,350.039 L330.737,276.531 C330.737,271.179 335.091,266.824 340.444,266.824 L445.61,266.824 C450.964,266.824 455.318,271.179 455.318,276.531 L455.318,350.039 C455.318,355.393 450.964,359.747 445.61,359.747" id="Fill-139" fill="#5B7F89"></path>
            <path d="M445.828,278.817 C445.828,280.647 444.345,282.131 442.515,282.131 C440.686,282.131 439.202,280.647 439.202,278.817 C439.202,276.988 440.686,275.505 442.515,275.505 C444.345,275.505 445.828,276.988 445.828,278.817" id="Fill-140" fill="#5B7F89"></path>
            <path d="M436,280.263 L421.172,280.263 C420.435,280.263 419.837,279.665 419.837,278.928 L419.837,278.708 C419.837,277.971 420.435,277.373 421.172,277.373 L436,277.373 C436.738,277.373 437.336,277.971 437.336,278.708 L437.336,278.928 C437.336,279.665 436.738,280.263 436,280.263" id="Fill-141" fill="#5B7F89"></path>
            <polygon id="Fill-142" fill="#5B7F89" points="341.611 277.547 348.05 277.547 348.05 276.637 341.611 276.637"></polygon>
            <polygon id="Fill-143" fill="#5B7F89" points="341.611 279.578 348.05 279.578 348.05 278.668 341.611 278.668"></polygon>
            <polygon id="Fill-144" fill="#5B7F89" points="341.611 281.61 348.05 281.61 348.05 280.701 341.611 280.701"></polygon>
            <path d="M350.375,347.977 L347.34,347.977 C345.765,347.977 344.489,346.7 344.489,345.125 L344.489,344.657 C344.489,343.082 345.765,341.806 347.34,341.806 L358.893,341.806 C357.891,342.102 357.03,342.405 356.338,342.709 C354.819,343.377 352.548,345.283 350.375,347.977" id="Fill-145" fill="#FDFCF6"></path>
            <path d="M382.628,347.977 L350.375,347.977 C352.548,345.283 354.819,343.377 356.338,342.709 C357.03,342.405 357.891,342.102 358.893,341.806 L382.628,341.806 C384.202,341.806 385.479,343.082 385.479,344.657 L385.479,345.125 C385.479,346.7 384.202,347.977 382.628,347.977" id="Fill-146" fill="#EBE2E8"></path>
            <path d="M558.428,200.476 C559.312,197.217 561.229,194.33 563.383,191.729 C570.888,182.665 581.424,176.467 588.781,167.282 C594.588,160.033 598.183,151.133 599.649,141.962 C600.16,138.773 600.42,135.499 599.834,132.322 C599.432,130.143 598.653,128.108 597.626,126.182 L548.511,126.182 C546.169,126.182 544.264,128.087 544.264,130.429 L544.264,203.936 C544.264,206.279 546.169,208.184 548.511,208.184 L557.931,208.184 C557.711,205.59 557.751,202.978 558.428,200.476" id="Fill-147" fill="#BBDBAA"></path>
            <path d="M636.311,185.161 C634.489,180.95 633.462,176.144 634.857,171.774 C635.918,168.452 638.31,165.663 641.163,163.657 C644.016,161.651 647.316,160.371 650.662,159.39 C653.047,158.69 655.475,158.14 657.926,157.73 L657.926,130.429 C657.926,128.087 656.02,126.182 653.678,126.182 L597.626,126.182 C598.653,128.108 599.432,130.143 599.834,132.322 C600.42,135.499 600.16,138.773 599.649,141.962 C598.183,151.133 594.588,160.033 588.781,167.282 C581.424,176.467 570.888,182.665 563.383,191.729 C561.229,194.33 559.312,197.217 558.428,200.476 C557.751,202.978 557.711,205.59 557.931,208.184 L645.765,208.184 C645.244,204.451 644.199,200.785 642.635,197.381 C640.719,193.212 638.133,189.372 636.311,185.161" id="Fill-148" fill="#E0EDCD"></path>
            <path d="M650.662,159.39 C647.316,160.371 644.016,161.651 641.163,163.657 C638.311,165.663 635.918,168.452 634.857,171.774 C633.462,176.144 634.489,180.95 636.312,185.161 C638.133,189.372 640.719,193.212 642.635,197.381 C644.199,200.785 645.244,204.451 645.765,208.184 L653.678,208.184 C656.021,208.184 657.926,206.279 657.926,203.936 L657.926,157.73 C655.475,158.14 653.047,158.69 650.662,159.39" id="Fill-149" fill="#BBDBAA"></path>
            <path d="M583.809,159.856 C576.117,156.534 574.688,149.667 574.964,147.146 C575.24,144.625 576.53,142.088 578.78,140.919 C581.166,139.68 584.423,140.011 586.152,137.952 C587.175,136.735 587.326,135.025 588.002,133.587 C588.941,131.585 590.922,130.175 593.071,129.657 C595.222,129.139 597.516,129.449 599.579,130.244 C603.433,131.727 606.867,134.895 610.99,134.671 C613.011,134.562 614.914,133.619 616.935,133.488 C619.034,133.353 621.178,134.154 622.674,135.634 C624.17,137.114 624.994,139.248 624.882,141.35 C624.764,143.549 623.679,145.657 623.849,147.854 C624.003,149.856 625.169,151.611 626.141,153.369 C627.111,155.126 627.934,157.182 627.342,159.101 C626.628,161.413 624.103,162.752 623.211,165.001 C622.634,166.456 622.82,168.085 622.631,169.638 C622.294,172.404 620.566,175.07 617.979,176.103 C615.012,177.289 611.673,176.216 608.663,175.143 L583.809,159.856" id="Fill-150" fill="#23212D"></path>
            <path d="M646.231,198.129 C636.507,193.014 622.946,193.522 607.088,192.239 C591.468,190.975 566.752,193.731 559.31,196.606 C555.779,197.97 548.683,204.496 546.243,212.353 L656.231,212.353 C654.176,206.664 651.016,200.645 646.231,198.129" id="Fill-151" fill="#F6BE6B"></path>
            <path d="M609.936,192.568 L609.177,172.054 L593.335,172.054 L593.166,192.212 C595.797,199.498 605.81,200.236 609.479,193.415 L609.936,192.568" id="Fill-152" fill="#9A625E"></path>
            <path d="M582.245,160.357 C582.245,160.357 583.608,183.916 599.109,183.891 C613.335,183.867 614.676,167.901 614.676,167.901 C614.676,167.901 617.416,167.088 618.517,162.293 C619.387,158.501 616.726,156.155 614.966,159.883 C614.966,159.883 614.018,160.146 613.044,159.341 C613.044,159.341 612.344,155.489 611.222,152.332 C610.1,149.175 586.19,157.747 582.656,152.575 C582.656,152.575 581.442,155.11 582.245,160.357" id="Fill-153" fill="#B8736B"></path>
            <path d="M597.505,169.252 C596.979,169.216 596.23,169.199 595.389,169.042 C594.978,168.958 594.521,168.831 594.203,168.572 C594.035,168.464 593.937,168.265 593.884,168.136 L593.892,167.832 C593.891,167.71 593.922,167.585 593.935,167.459 C594.104,166.448 594.575,165.533 594.997,164.774 C595.432,164.015 595.84,163.396 596.12,162.948 C595.688,163.253 595.133,163.773 594.576,164.495 C594.034,165.221 593.449,166.158 593.245,167.35 C593.197,167.671 593.18,167.891 593.213,168.3 C593.354,168.665 593.554,168.924 593.819,169.094 C594.333,169.441 594.864,169.507 595.326,169.543 C596.258,169.586 597.004,169.422 597.505,169.252" id="Fill-154" fill="#965955"></path>
            <path d="M602.015,163.669 C602.095,164.941 603.191,165.906 604.463,165.826 C605.734,165.745 606.699,164.649 606.619,163.378 C606.539,162.106 605.442,161.141 604.171,161.221 C602.899,161.302 601.935,162.397 602.015,163.669" id="Fill-155" fill="#FFFFFE"></path>
            <path d="M603.819,164.92 C604.532,164.875 605.073,164.261 605.028,163.548 C604.983,162.835 604.369,162.294 603.656,162.339 C602.943,162.384 602.402,162.999 602.447,163.711 C602.492,164.424 603.106,164.965 603.819,164.92" id="Fill-156" fill="#353837"></path>
            <path d="M586.243,164.667 C586.324,165.939 587.42,166.904 588.691,166.824 C589.963,166.743 590.929,165.647 590.848,164.376 C590.768,163.104 589.672,162.139 588.4,162.219 C587.129,162.299 586.163,163.396 586.243,164.667" id="Fill-157" fill="#FFFFFE"></path>
            <path d="M588.057,166.056 C588.77,166.011 589.311,165.397 589.266,164.684 C589.221,163.971 588.606,163.43 587.894,163.475 C587.181,163.52 586.64,164.134 586.685,164.847 C586.73,165.56 587.345,166.101 588.057,166.056" id="Fill-158" fill="#353837"></path>
            <path d="M606.954,160.08 C606.919,160.061 605.996,159.512 604.607,159.51 C603.884,159.509 603.036,159.663 602.146,160.119 C601.961,160.213 601.888,160.439 601.983,160.624 C602.077,160.808 602.303,160.881 602.487,160.786 C603.267,160.388 603.988,160.26 604.607,160.26 C605.2,160.26 605.698,160.379 606.046,160.498 C606.219,160.558 606.354,160.617 606.444,160.66 L606.544,160.71 L606.566,160.723 L606.57,160.724 C606.747,160.831 606.978,160.772 607.084,160.595 C607.19,160.417 607.132,160.186 606.954,160.08" id="Fill-159" fill="#353837"></path>
            <path d="M586.067,162.021 L586.072,162.018 C586.157,161.953 587.112,161.275 588.514,161.278 C588.998,161.278 589.538,161.357 590.126,161.569 C590.32,161.639 590.535,161.538 590.606,161.343 C590.676,161.148 590.575,160.933 590.38,160.863 C589.71,160.621 589.08,160.528 588.514,160.528 C586.757,160.531 585.64,161.405 585.605,161.431 C585.442,161.558 585.413,161.794 585.541,161.957 C585.668,162.12 585.904,162.149 586.067,162.021" id="Fill-160" fill="#353837"></path>
            <path d="M599.215,171.147 L593.931,171.481 C593.931,171.481 594.485,173.557 596.706,173.416 C598.927,173.276 599.215,171.147 599.215,171.147" id="Fill-161" fill="#FFFFFE"></path>
            <path d="M548.511,126.182 C546.169,126.182 544.264,128.087 544.264,130.429 L544.264,203.936 C544.264,206.279 546.169,208.184 548.511,208.184 L653.678,208.184 C656.021,208.184 657.926,206.279 657.926,203.936 L657.926,130.429 C657.926,128.087 656.021,126.182 653.678,126.182 L548.511,126.182 Z M653.678,213.644 L548.511,213.644 C543.158,213.644 538.804,209.29 538.804,203.936 L538.804,130.429 C538.804,125.076 543.158,120.722 548.511,120.722 L653.678,120.722 C659.031,120.722 663.386,125.076 663.386,130.429 L663.386,203.936 C663.386,209.29 659.031,213.644 653.678,213.644 Z" id="Fill-162" fill="#5B7F89"></path>
            <path d="M653.895,132.715 C653.895,134.544 652.412,136.028 650.582,136.028 C648.752,136.028 647.27,134.544 647.27,132.715 C647.27,130.885 648.752,129.402 650.582,129.402 C652.412,129.402 653.895,130.885 653.895,132.715" id="Fill-163" fill="#5B7F89"></path>
            <path d="M644.067,134.16 L629.239,134.16 C628.502,134.16 627.903,133.562 627.903,132.825 L627.903,132.605 C627.903,131.868 628.502,131.27 629.239,131.27 L644.067,131.27 C644.806,131.27 645.403,131.868 645.403,132.605 L645.403,132.825 C645.403,133.562 644.806,134.16 644.067,134.16" id="Fill-164" fill="#5B7F89"></path>
            <polygon id="Fill-165" fill="#5B7F89" points="549.679 131.444 556.117 131.444 556.117 130.534 549.679 130.534"></polygon>
            <polygon id="Fill-166" fill="#5B7F89" points="549.679 133.476 556.117 133.476 556.117 132.565 549.679 132.565"></polygon>
            <polygon id="Fill-167" fill="#5B7F89" points="549.679 135.508 556.117 135.508 556.117 134.598 549.679 134.598"></polygon>
            <path d="M553.354,201.002 C552.86,200.489 552.556,199.791 552.556,199.022 L552.556,198.554 C552.556,196.979 553.832,195.703 555.407,195.703 L560.52,195.703 C560.402,195.9 560.287,196.098 560.174,196.298 C559.865,196.4 559.577,196.503 559.31,196.606 C557.774,197.2 555.563,198.77 553.354,201.002" id="Fill-168" fill="#F7F9EF"></path>
            <path d="M560.174,196.298 C560.287,196.098 560.402,195.9 560.52,195.703 L562.219,195.703 C561.464,195.899 560.779,196.098 560.174,196.298" id="Fill-169" fill="#FDFCF6"></path>
            <path d="M590.695,201.874 L555.407,201.874 C554.601,201.874 553.873,201.539 553.354,201.002 C555.563,198.77 557.774,197.2 559.31,196.606 C559.577,196.503 559.865,196.4 560.174,196.298 C560.779,196.098 561.464,195.899 562.219,195.703 L590.695,195.703 C592.269,195.703 593.546,196.979 593.546,198.554 L593.546,199.022 C593.546,200.597 592.269,201.874 590.695,201.874" id="Fill-170" fill="#FFF4E0"></path>
            <path d="M155.214,133.751 C143.797,122.334 125.287,122.334 113.871,133.751 C104.517,143.105 102.833,157.217 108.806,168.292 L102.35,186.615 L115.574,181.956 L120.673,180.159 C131.747,186.132 145.86,184.448 155.214,175.094 C166.631,163.678 166.631,145.168 155.214,133.751" id="Fill-171" fill="#E67DA7"></path>
            <path d="M123.438,155.285 C123.438,157.489 121.651,159.276 119.446,159.276 C117.241,159.276 115.454,157.489 115.454,155.285 C115.454,153.08 117.241,151.293 119.446,151.293 C121.651,151.293 123.438,153.08 123.438,155.285" id="Fill-172" fill="#FFFFFE"></path>
            <path d="M138.938,155.285 C138.938,157.489 137.15,159.276 134.945,159.276 C132.741,159.276 130.954,157.489 130.954,155.285 C130.954,153.08 132.741,151.293 134.945,151.293 C137.15,151.293 138.938,153.08 138.938,155.285" id="Fill-173" fill="#FFFFFE"></path>
            <path d="M154.437,155.285 C154.437,157.489 152.649,159.276 150.445,159.276 C148.24,159.276 146.453,157.489 146.453,155.285 C146.453,153.08 148.24,151.293 150.445,151.293 C152.649,151.293 154.437,153.08 154.437,155.285" id="Fill-174" fill="#FFFFFE"></path>
            <path d="M491.426,133.462 C488.175,130.212 483.853,128.422 479.256,128.422 C474.658,128.422 470.336,130.212 467.086,133.462 L461.034,127.411 C465.9,122.543 472.372,119.862 479.256,119.862 C486.139,119.862 492.611,122.543 497.478,127.411 L491.426,133.462" id="Fill-175" fill="#486AA5"></path>
            <path d="M501.465,123.423 C495.533,117.491 487.645,114.224 479.256,114.224 C470.866,114.224 462.979,117.491 457.047,123.423 L450.994,117.371 C458.543,109.821 468.579,105.664 479.256,105.664 C489.931,105.664 499.969,109.821 507.518,117.371 L501.465,123.423" id="Fill-176" fill="#486AA5"></path>
            <path d="M511.505,113.384 C502.891,104.769 491.438,100.025 479.256,100.025 C467.073,100.025 455.621,104.769 447.007,113.384 L440.955,107.332 C451.186,97.1 464.787,91.465 479.256,91.465 C493.725,91.465 507.326,97.1 517.557,107.332 L511.505,113.384" id="Fill-177" fill="#486AA5"></path>
            <path d="M653.849,243.347 L652.346,244.85 L650.844,243.347 C644.86,237.363 635.158,237.363 629.175,243.347 C623.19,249.332 623.19,259.033 629.175,265.017 L649.425,285.268 C651.038,286.881 653.654,286.881 655.268,285.268 L675.518,265.017 C681.502,259.033 681.502,249.332 675.518,243.347 C669.534,237.363 659.832,237.363 653.849,243.347" id="Fill-178" fill="#E36662"></path>
            <path d="M419.716,396.14 L406.019,399.287 L406.019,393.827 C406.019,390.272 403.136,387.388 399.579,387.388 L353.97,387.388 C350.414,387.388 347.53,390.272 347.53,393.827 L347.53,426.036 C347.53,429.593 350.414,432.476 353.97,432.476 L399.579,432.476 C403.136,432.476 406.019,429.593 406.019,426.036 L406.019,420.576 L419.716,423.724 C421.615,424.16 423.428,422.717 423.428,420.768 L423.428,399.096 C423.428,397.147 421.615,395.703 419.716,396.14" id="Fill-179" fill="#F6BE6B"></path>
            <path d="M388.507,417.709 L365.042,417.709 C363.425,417.709 362.114,416.398 362.114,414.781 L362.114,405.082 C362.114,403.465 363.425,402.154 365.042,402.154 L388.507,402.154 C390.124,402.154 391.435,403.465 391.435,405.082 L391.435,414.781 C391.435,416.398 390.124,417.709 388.507,417.709" id="Fill-180" fill="#FFFFFE"></path>
        </g>
    </g>
</svg>