
<svg width="300px" height="300px" viewBox="0 0 300 300" version="1.1" xmlns="http://www.w3.org/2000/svg" xmlns:xlink="http://www.w3.org/1999/xlink">
    <g id="Page-1" stroke="none" stroke-width="1" fill="none" fill-rule="evenodd">
        <g id="Logos-Copy" transform="translate(-101.000000, -100.000000)">
            <circle id="Oval" fill="#D8D8D8" cx="251" cy="250" r="150"></circle>
            <g id="Group" transform="translate(124.000000, 176.000000)">
                <polyline id="Fill-4" fill="#283C46" points="2 47.378 126.675 92.756 251.351 47.378 126.675 2 2 47.378"></polyline>
                <path d="M7.091,47.185 L126.483,90.641 L245.875,47.185 L126.483,3.73 L7.091,47.185 Z M126.483,94.37 C126.274,94.37 126.065,94.334 125.865,94.262 L1.189,48.883 C0.475,48.623 -1.84741111e-13,47.944 -1.84741111e-13,47.185 C-1.84741111e-13,46.425 0.475,45.746 1.189,45.486 L125.865,0.108 C126.265,-0.036 126.702,-0.036 127.101,0.108 L251.778,45.486 C252.492,45.746 252.967,46.425 252.967,47.185 C252.967,47.944 252.492,48.623 251.778,48.883 L127.101,94.262 C126.902,94.334 126.693,94.37 126.483,94.37 Z" id="Fill-5" fill="#1B2831"></path>
                <path d="M58,111.39 C75.589,103.514 99.789,98.646 126.51,98.646 C153.231,98.646 177.431,103.514 195.02,111.39 L195.02,57.744 C177.431,49.868 153.231,45 126.51,45 C99.789,45 75.589,49.868 58,57.744 L58,111.39" id="Fill-6" fill="#283C46"></path>
                <path d="M126.317,96.646 C151.218,96.646 174.768,100.825 193.02,108.447 L193.02,58.73 C175.023,50.911 151.395,46.614 126.317,46.614 C101.239,46.614 77.612,50.911 59.615,58.73 L59.615,108.447 C77.866,100.825 101.416,96.646 126.317,96.646 Z M194.827,113.005 C194.576,113.005 194.325,112.952 194.089,112.847 C175.963,104.73 151.895,100.26 126.317,100.26 C100.74,100.26 76.671,104.73 58.546,112.847 C57.987,113.096 57.339,113.048 56.825,112.714 C56.31,112.381 56,111.81 56,111.197 L56,57.551 C56,56.839 56.418,56.193 57.068,55.902 C75.649,47.582 100.242,43 126.317,43 C152.393,43 176.986,47.582 195.566,55.902 C196.216,56.193 196.635,56.839 196.635,57.551 L196.635,111.197 C196.635,111.81 196.324,112.381 195.81,112.714 C195.513,112.907 195.171,113.005 194.827,113.005 Z" id="Fill-7" fill="#1B2831"></path>
                <polyline id="Fill-8" fill="#FADB48" points="233.531 40.741 226 38 226 99.54 233.531 99.54 233.531 40.741"></polyline>
                <path d="M227.614,98.5388687 L231.53,98.5388687 L231.53,42.8138687 L227.614,41.3878687 L227.614,98.5388687 Z M233.338,102.153869 L225.807,102.153869 C224.809,102.153869 224,101.344869 224,100.346869 L224,38.8068687 C224,38.2178687 224.287,37.6648687 224.77,37.3268687 C225.254,36.9888687 225.871,36.9078687 226.425,37.1078687 L233.956,39.8498687 C234.67,40.1098687 235.145,40.7888687 235.145,41.5478687 L235.145,100.346869 C235.145,101.344869 234.336,102.153869 233.338,102.153869 Z" id="Fill-9" fill="#1B2831"></path>
                <path d="M235.211,100.106 C235.211,102.925 232.926,105.211 230.106,105.211 C227.287,105.211 225,102.925 225,100.106 C225,97.286 227.287,95 230.106,95 C232.926,95 235.211,97.286 235.211,100.106" id="Fill-10" fill="#FADB48"></path>
                <path d="M229.912,96.614 C228.094,96.614 226.614,98.094 226.614,99.913 C226.614,101.731 228.094,103.211 229.912,103.211 C231.73,103.211 233.21,101.731 233.21,99.913 C233.21,98.094 231.73,96.614 229.912,96.614 Z M229.912,106.825 C226.1,106.825 223,103.724 223,99.913 C223,96.101 226.1,93 229.912,93 C233.723,93 236.825,96.101 236.825,99.913 C236.825,103.724 233.723,106.825 229.912,106.825 Z" id="Fill-11" fill="#1B2831"></path>
                <path d="M239.418,146.137 L235.382,110.073 C235.059,107.184 232.616,105 229.709,105 C226.802,105 224.359,107.184 224.036,110.073 L220,146.137 C226.24,143.68 233.179,143.68 239.418,146.137" id="Fill-12" fill="#FADB48"></path>
                <path d="M229.516371,142.288 C232.070371,142.288 234.625371,142.635 237.114371,143.332 L233.393371,110.082 C233.172371,108.105 231.505371,106.614 229.516371,106.614 C227.527371,106.614 225.860371,108.105 225.639371,110.081 L221.918371,143.331 C224.407371,142.635 226.962371,142.288 229.516371,142.288 Z M239.225371,147.752 C239.001371,147.752 238.777371,147.71 238.563371,147.626 C232.729371,145.329 226.303371,145.329 220.469371,147.626 C219.882371,147.858 219.213371,147.766 218.708371,147.379 C218.205371,146.994 217.940371,146.373 218.011371,145.743 L222.047371,109.679 C222.473371,105.872 225.684371,103 229.516371,103 C233.347371,103 236.559371,105.872 236.986371,109.679 L241.021371,145.743 C241.092371,146.373 240.827371,146.994 240.324371,147.379 C240.003371,147.625 239.616371,147.752 239.225371,147.752 Z" id="Fill-13" fill="#1B2831"></path>
            </g>
        </g>
    </g>
</svg>