
<svg width="300px" height="300px" viewBox="0 0 300 300" version="1.1" xmlns="http://www.w3.org/2000/svg" xmlns:xlink="http://www.w3.org/1999/xlink">
    <g id="Page-1" stroke="none" stroke-width="1" fill="none" fill-rule="evenodd">
        <g id="Logos-Copy" transform="translate(-101.000000, -101.000000)">
            <circle id="Oval" fill="#D8D8D8" cx="251" cy="251" r="150"></circle>
            <g id="Group" transform="translate(170.000000, 157.000000)">
                <polygon id="Fill-61" fill="#F4F4F1" points="27 165.883 158.844 165.883 158.844 1 27 1"></polygon>
                <path d="M28.615,164.882 L156.845,164.882 L156.845,3.614 L28.615,3.614 L28.615,164.882 Z M158.652,168.497 L26.807,168.497 C25.809,168.497 25,167.688 25,166.69 L25,1.807 C25,0.808 25.809,2.84217094e-14 26.807,2.84217094e-14 L158.652,2.84217094e-14 C159.65,2.84217094e-14 160.459,0.808 160.459,1.807 L160.459,166.69 C160.459,167.688 159.65,168.497 158.652,168.497 Z" id="Fill-62" fill="#1B2831"></path>
                <path d="M61.371,35.793 L58.454,27.938 L55.595,35.793 L61.371,35.793 Z M69.241,44.168 L64.591,44.168 L62.743,39.36 L54.281,39.36 L52.534,44.168 L48,44.168 L56.245,23 L60.764,23 L69.241,44.168 Z" id="Fill-63" fill="#B6433A"></path>
                <polyline id="Fill-64" fill="#B6433A" points="75.545 41.801 75.545 36.299 70 36.299 70 32.502 75.545 32.502 75.545 27 79.242 27 79.242 32.502 84.801 32.502 84.801 36.299 79.242 36.299 79.242 41.801 75.545 41.801"></polyline>
                <path d="M138.363,68.493 L47.247,68.493 C46.558,68.493 46,67.935 46,67.246 C46,66.557 46.558,66 47.247,66 L138.363,66 C139.051,66 139.61,66.557 139.61,67.246 C139.61,67.935 139.051,68.493 138.363,68.493" id="Fill-65" fill="#D2D2CC"></path>
                <path d="M138.363,78.493 L47.247,78.493 C46.558,78.493 46,77.935 46,77.246 C46,76.557 46.558,76 47.247,76 L138.363,76 C139.051,76 139.61,76.557 139.61,77.246 C139.61,77.935 139.051,78.493 138.363,78.493" id="Fill-66" fill="#D2D2CC"></path>
                <path d="M138.363,87.493 L47.247,87.493 C46.558,87.493 46,86.936 46,86.247 C46,85.557 46.558,85 47.247,85 L138.363,85 C139.051,85 139.61,85.557 139.61,86.247 C139.61,86.936 139.051,87.493 138.363,87.493" id="Fill-67" fill="#D2D2CC"></path>
                <path d="M138.363,97.493 L47.247,97.493 C46.558,97.493 46,96.936 46,96.247 C46,95.557 46.558,95 47.247,95 L138.363,95 C139.051,95 139.61,95.557 139.61,96.247 C139.61,96.936 139.051,97.493 138.363,97.493" id="Fill-68" fill="#D2D2CC"></path>
                <path d="M138.363,107.494 L47.247,107.494 C46.558,107.494 46,106.936 46,106.247 C46,105.558 46.558,105 47.247,105 L138.363,105 C139.051,105 139.61,105.558 139.61,106.247 C139.61,106.936 139.051,107.494 138.363,107.494" id="Fill-69" fill="#D2D2CC"></path>
                <path d="M138.363,116.494 L47.247,116.494 C46.558,116.494 46,115.936 46,115.247 C46,114.558 46.558,114 47.247,114 L138.363,114 C139.051,114 139.61,114.558 139.61,115.247 C139.61,115.936 139.051,116.494 138.363,116.494" id="Fill-70" fill="#D2D2CC"></path>
                <path d="M138.363,126.494 L47.247,126.494 C46.558,126.494 46,125.936 46,125.247 C46,124.558 46.558,124 47.247,124 L138.363,124 C139.051,124 139.61,124.558 139.61,125.247 C139.61,125.936 139.051,126.494 138.363,126.494" id="Fill-71" fill="#D2D2CC"></path>
                <path d="M92.805,135.494 L47.247,135.494 C46.558,135.494 46,134.936 46,134.247 C46,133.558 46.558,133 47.247,133 L92.805,133 C93.493,133 94.051,133.558 94.051,134.247 C94.051,134.936 93.493,135.494 92.805,135.494" id="Fill-72" fill="#D2D2CC"></path>
                <polyline id="Fill-73" fill="#BD554E" points="43.189 184.28 27.095 175.65 11 184.28 11 155 43.189 155 43.189 184.28"></polyline>
                <path d="M26.901,174.65 C27.195,174.65 27.489,174.722 27.756,174.865 L41.189,182.068 L41.189,157.614 L12.614,157.614 L12.614,182.068 L26.047,174.865 C26.315,174.722 26.608,174.65 26.901,174.65 Z M42.996,186.894 C42.702,186.894 42.409,186.823 42.142,186.68 L26.901,178.508 L11.662,186.68 C11.102,186.98 10.424,186.963 9.879,186.638 C9.334,186.311 9,185.723 9,185.087 L9,155.807 C9,154.809 9.809,154 10.807,154 L42.996,154 C43.994,154 44.803,154.809 44.803,155.807 L44.803,185.087 C44.803,185.723 44.47,186.311 43.924,186.638 C43.639,186.809 43.318,186.894 42.996,186.894 Z" id="Fill-74" fill="#1B2831"></path>
                <path d="M52.898,144.449 C52.898,158.504 41.504,169.898 27.449,169.898 C13.394,169.898 2,158.504 2,144.449 C2,130.393 13.394,119 27.449,119 C41.504,119 52.898,130.393 52.898,144.449" id="Fill-75" fill="#FACC5F"></path>
                <path d="M27.256,120.614 C14.22,120.614 3.615,131.219 3.615,144.256 C3.615,157.292 14.22,167.898 27.256,167.898 C40.293,167.898 50.899,157.292 50.899,144.256 C50.899,131.219 40.293,120.614 27.256,120.614 Z M27.256,171.512 C12.227,171.512 4.19220214e-13,159.285 4.19220214e-13,144.256 C4.19220214e-13,129.226 12.227,117 27.256,117 C42.286,117 54.513,129.226 54.513,144.256 C54.513,159.285 42.286,171.512 27.256,171.512 Z" id="Fill-76" fill="#1B2831"></path>
                <path d="M44.191,144.096 C44.191,153.537 36.537,161.191 27.096,161.191 C17.654,161.191 10,153.537 10,144.096 C10,134.654 17.654,127 27.096,127 C36.537,127 44.191,134.654 44.191,144.096" id="Fill-77" fill="#F5BE6C"></path>
            </g>
        </g>
    </g>
</svg>