
<svg width="300px" height="300px" viewBox="0 0 300 300" version="1.1" xmlns="http://www.w3.org/2000/svg" xmlns:xlink="http://www.w3.org/1999/xlink">
    <g id="Page-1" stroke="none" stroke-width="1" fill="none" fill-rule="evenodd">
        <g id="Logos-Copy" transform="translate(-100.000000, -100.000000)">
            <circle id="Oval" fill="#D8D8D8" cx="250" cy="250" r="150"></circle>
            <g id="Group" transform="translate(150.000000, 194.000000)">
                <polygon id="Fill-140" fill="#F5BE6C" points="17 97.94 72.038 97.94 72.038 34 17 34"></polygon>
                <path d="M18.615,96.95 L70.037,96.95 L70.037,36.61 L18.615,36.61 L18.615,96.95 Z M71.844,100.56 L16.807,100.56 C15.809,100.56 15,99.75 15,98.75 L15,34.81 C15,33.81 15.809,33 16.807,33 L71.844,33 C72.843,33 73.652,33.81 73.652,34.81 L73.652,98.75 C73.652,99.75 72.843,100.56 71.844,100.56 Z" id="Fill-141" fill="#1B2831"></path>
                <polygon id="Fill-142" fill="#F5BE6C" points="127 98.38 182.037 98.38 182.037 18 127 18"></polygon>
                <path d="M128.614,96.39 L180.037,96.39 L180.037,19.61 L128.614,19.61 L128.614,96.39 Z M181.844,100 L126.807,100 C125.809,100 125,99.19 125,98.19 L125,17.81 C125,16.81 125.809,16 126.807,16 L181.844,16 C182.842,16 183.652,16.81 183.652,17.81 L183.652,98.19 C183.652,99.19 182.842,100 181.844,100 Z" id="Fill-143" fill="#1B2831"></path>
                <polygon id="Fill-144" fill="#FACC5F" points="72 98.4 127.037 98.4 127.037 2 72 2"></polygon>
                <path d="M73.615,96.41 L125.038,96.41 L125.038,3.61 L73.615,3.61 L73.615,96.41 Z M126.845,100.02 L71.807,100.02 C70.809,100.02 70,99.21 70,98.21 L70,1.81 C70,0.81 70.809,0 71.807,0 L126.845,0 C127.843,0 128.652,0.81 128.652,1.81 L128.652,98.21 C128.652,99.21 127.843,100.02 126.845,100.02 Z" id="Fill-145" fill="#1B2831"></path>
                <polygon id="Fill-146" fill="#947351" points="1 107.43 197.083 107.43 197.083 98 1 98"></polygon>
                <path d="M3.614,106.42 L196.083,106.42 L196.083,100.61 L3.614,100.61 L3.614,106.42 Z M197.89,110.04 L1.807,110.04 C0.809,110.04 5.68434189e-14,109.23 5.68434189e-14,108.23 L5.68434189e-14,98.8 C5.68434189e-14,97.81 0.809,97 1.807,97 L197.89,97 C198.888,97 199.697,97.81 199.697,98.8 L199.697,108.23 C199.697,109.23 198.888,110.04 197.89,110.04 Z" id="Fill-147" fill="#1B2831"></path>
            </g>
        </g>
    </g>
</svg>