
<svg width="385px" height="247px" viewBox="0 0 385 247" version="1.1" xmlns="http://www.w3.org/2000/svg" xmlns:xlink="http://www.w3.org/1999/xlink">
    <g id="Page-1" stroke="none" stroke-width="1" fill="none" fill-rule="evenodd">
        <g id="Logos" transform="translate(-58.000000, -110.000000)">
            <g id="Group" transform="translate(58.000000, 110.000000)">
                <path d="M84.05,112.8 C84.05,115.2 82.25,117 79.85,117 L4.85,117 C2.6,117 0.8,115.2 0.8,112.8 L0.8,4.5 C0.8,2.1 2.6,0.3 4.85,0.3 L13.25,0.3 C15.5,0.3 17.45,2.1 17.45,4.5 L17.45,100.35 L79.85,100.35 C82.25,100.35 84.05,102.15 84.05,104.55 L84.05,112.8 Z M184.1,112.8 C184.1,115.2 182.3,117 179.9,117 L104.9,117 C102.65,117 100.85,115.2 100.85,112.8 L100.85,4.5 C100.85,2.1 102.65,0.3 104.9,0.3 L179.9,0.3 C182.3,0.3 184.1,2.1 184.1,4.5 L184.1,12.9 C184.1,15.15 182.3,16.95 179.9,16.95 L117.5,16.95 L117.5,50.4 L163.25,50.4 C165.65,50.4 167.45,52.2 167.45,54.45 L167.45,62.85 C167.45,65.1 165.65,67.05 163.25,67.05 L117.5,67.05 L117.5,100.35 L179.9,100.35 C182.3,100.35 184.1,102.15 184.1,104.55 L184.1,112.8 Z M284.15,76.65 C284.15,77.85 283.7,79.05 282.8,79.8 L245.3,117.45 C244.7,118.2 243.65,118.5 242.45,118.5 C241.4,118.5 240.35,118.2 239.6,117.45 L202.1,79.8 C201.35,79.05 200.9,77.85 200.9,76.65 L200.9,4.5 C200.9,2.1 202.7,0.3 204.95,0.3 L213.35,0.3 C215.6,0.3 217.55,2.1 217.55,4.5 L217.55,72 L242.45,97.05 L267.5,72 L267.5,4.65 C267.5,2.1 269.3,0.3 271.7,0.3 L279.95,0.3 C282.35,0.3 284.15,2.1 284.15,4.5 L284.15,76.65 Z M384.2,112.8 C384.2,115.2 382.4,117 380,117 L305,117 C302.75,117 300.95,115.2 300.95,112.8 L300.95,4.5 C300.95,2.1 302.75,0.3 305,0.3 L380,0.3 C382.4,0.3 384.2,2.1 384.2,4.5 L384.2,12.9 C384.2,15.15 382.4,16.95 380,16.95 L317.6,16.95 L317.6,50.4 L363.35,50.4 C365.75,50.4 367.55,52.2 367.55,54.45 L367.55,62.85 C367.55,65.1 365.75,67.05 363.35,67.05 L317.6,67.05 L317.6,100.35 L380,100.35 C382.4,100.35 384.2,102.15 384.2,104.55 L384.2,112.8 Z" id="LEVE" fill="#000000"></path>
                <path d="M184.075,242.8 C184.075,245.2 182.275,247 179.875,247 L104.875,247 C102.625,247 100.825,245.2 100.825,242.8 L100.825,234.55 C100.825,232.15 102.625,230.35 104.875,230.35 L134.125,230.35 L134.125,146.95 L121.525,146.95 C119.275,146.95 117.475,145.15 117.475,142.9 L117.475,134.5 C117.475,132.1 119.275,130.3 121.525,130.3 L163.225,130.3 C165.625,130.3 167.425,132.1 167.425,134.5 L167.425,142.9 C167.425,145.15 165.625,146.95 163.225,146.95 L150.775,146.95 L150.775,230.35 L179.875,230.35 C182.275,230.35 184.075,232.15 184.075,234.55 L184.075,242.8 Z M284.125,242.8 C284.125,245.2 282.325,247 279.925,247 L271.675,247 C269.275,247 267.475,245.2 267.475,242.8 L267.475,225.4 L217.525,175.3 L217.525,242.8 C217.525,245.2 215.575,247 213.325,247 L204.925,247 C202.675,247 200.875,245.2 200.875,242.8 L200.875,134.5 C200.875,132.1 202.675,130.3 204.925,130.3 L213.325,130.3 C215.575,130.3 217.525,132.1 217.525,134.5 L217.525,152.05 L267.475,202 L267.475,134.5 C267.475,132.1 269.275,130.3 271.675,130.3 L279.925,130.3 C282.325,130.3 284.125,132.1 284.125,134.5 L284.125,242.8 Z M384.175,213.7 C384.175,232 369.175,247 350.875,247 L334.225,247 C315.925,247 300.925,232 300.925,213.7 L300.925,163.6 C300.925,145.3 315.925,130.3 334.225,130.3 L350.875,130.3 C369.175,130.3 384.175,145.3 384.175,163.6 C384.175,166 382.375,167.8 379.975,167.8 L371.725,167.8 C369.325,167.8 367.525,166 367.525,163.6 C367.525,154.45 360.025,146.95 350.875,146.95 L334.225,146.95 C325.075,146.95 317.575,154.45 317.575,163.6 L317.575,213.7 C317.575,222.85 325.075,230.35 334.225,230.35 L350.875,230.35 C360.025,230.35 367.525,222.85 367.525,213.7 L367.525,197.05 L338.425,197.05 C336.025,197.05 334.225,195.1 334.225,192.85 L334.225,184.45 C334.225,182.2 336.025,180.4 338.425,180.4 L379.975,180.4 C382.375,180.4 384.175,182.2 384.175,184.45 L384.175,213.7 Z" id="ING" fill="#000000"></path>
                <path d="M84.125,242.8 C84.125,245.2 82.325,247 79.925,247 L4.925,247 C2.675,247 0.875,245.2 0.875,242.8 L0.875,134.5 C0.875,132.1 2.675,130.3 4.925,130.3 L13.325,130.3 C15.575,130.3 17.525,132.1 17.525,134.5 L17.525,230.35 L79.925,230.35 C82.325,230.35 84.125,232.15 84.125,234.55 L84.125,242.8 Z" id="L" fill="#50E3C2"></path>
            </g>
        </g>
    </g>
</svg>