
<svg width="367px" height="56px" viewBox="0 0 367 56" version="1.1" xmlns="http://www.w3.org/2000/svg" xmlns:xlink="http://www.w3.org/1999/xlink">
    <g id="Page-1" stroke="none" stroke-width="1" fill="none" fill-rule="evenodd">
        <g id="Logos" transform="translate(-55.000000, -72.000000)">
            <g id="Group" transform="translate(51.000000, 73.000000)">
                <path d="M42.89,52.04 C42.89,53.16 42.05,54 40.93,54 L5.93,54 C4.88,54 4.04,53.16 4.04,52.04 L4.04,1.5 C4.04,0.38 4.88,-0.46 5.93,-0.46 L9.85,-0.46 C10.9,-0.46 11.81,0.38 11.81,1.5 L11.81,46.23 L40.93,46.23 C42.05,46.23 42.89,47.07 42.89,48.19 L42.89,52.04 Z M89.58,52.04 C89.58,53.16 88.74,54 87.62,54 L52.62,54 C51.57,54 50.73,53.16 50.73,52.04 L50.73,1.5 C50.73,0.38 51.57,-0.46 52.62,-0.46 L87.62,-0.46 C88.74,-0.46 89.58,0.38 89.58,1.5 L89.58,5.42 C89.58,6.47 88.74,7.31 87.62,7.31 L58.5,7.31 L58.5,22.92 L79.85,22.92 C80.97,22.92 81.81,23.76 81.81,24.81 L81.81,28.73 C81.81,29.78 80.97,30.69 79.85,30.69 L58.5,30.69 L58.5,46.23 L87.62,46.23 C88.74,46.23 89.58,47.07 89.58,48.19 L89.58,52.04 Z M136.27,35.17 C136.27,35.73 136.06,36.29 135.64,36.64 L118.14,54.21 C117.86,54.56 117.37,54.7 116.81,54.7 C116.32,54.7 115.83,54.56 115.48,54.21 L97.98,36.64 C97.63,36.29 97.42,35.73 97.42,35.17 L97.42,1.5 C97.42,0.38 98.26,-0.46 99.31,-0.46 L103.23,-0.46 C104.28,-0.46 105.19,0.38 105.19,1.5 L105.19,33 L116.81,44.69 L128.5,33 L128.5,1.57 C128.5,0.38 129.34,-0.46 130.46,-0.46 L134.31,-0.46 C135.43,-0.46 136.27,0.38 136.27,1.5 L136.27,35.17 Z M182.96,52.04 C182.96,53.16 182.12,54 181,54 L146,54 C144.95,54 144.11,53.16 144.11,52.04 L144.11,1.5 C144.11,0.38 144.95,-0.46 146,-0.46 L181,-0.46 C182.12,-0.46 182.96,0.38 182.96,1.5 L182.96,5.42 C182.96,6.47 182.12,7.31 181,7.31 L151.88,7.31 L151.88,22.92 L173.23,22.92 C174.35,22.92 175.19,23.76 175.19,24.81 L175.19,28.73 C175.19,29.78 174.35,30.69 173.23,30.69 L151.88,30.69 L151.88,46.23 L181,46.23 C182.12,46.23 182.96,47.07 182.96,48.19 L182.96,52.04 Z" id="LEVE" fill="#000000"></path>
                <path d="M229.925,52.04 C229.925,53.16 229.085,54 227.965,54 L192.965,54 C191.915,54 191.075,53.16 191.075,52.04 L191.075,1.5 C191.075,0.38 191.915,-0.46 192.965,-0.46 L196.885,-0.46 C197.935,-0.46 198.845,0.38 198.845,1.5 L198.845,46.23 L227.965,46.23 C229.085,46.23 229.925,47.07 229.925,48.19 L229.925,52.04 Z" id="L" fill="#50E3C2"></path>
                <path d="M277.235,52.04 C277.235,53.16 276.395,54 275.275,54 L240.275,54 C239.225,54 238.385,53.16 238.385,52.04 L238.385,48.19 C238.385,47.07 239.225,46.23 240.275,46.23 L253.925,46.23 L253.925,7.31 L248.045,7.31 C246.995,7.31 246.155,6.47 246.155,5.42 L246.155,1.5 C246.155,0.38 246.995,-0.46 248.045,-0.46 L267.505,-0.46 C268.625,-0.46 269.465,0.38 269.465,1.5 L269.465,5.42 C269.465,6.47 268.625,7.31 267.505,7.31 L261.695,7.31 L261.695,46.23 L275.275,46.23 C276.395,46.23 277.235,47.07 277.235,48.19 L277.235,52.04 Z M323.925,52.04 C323.925,53.16 323.085,54 321.965,54 L318.115,54 C316.995,54 316.155,53.16 316.155,52.04 L316.155,43.92 L292.845,20.54 L292.845,52.04 C292.845,53.16 291.935,54 290.885,54 L286.965,54 C285.915,54 285.075,53.16 285.075,52.04 L285.075,1.5 C285.075,0.38 285.915,-0.46 286.965,-0.46 L290.885,-0.46 C291.935,-0.46 292.845,0.38 292.845,1.5 L292.845,9.69 L316.155,33 L316.155,1.5 C316.155,0.38 316.995,-0.46 318.115,-0.46 L321.965,-0.46 C323.085,-0.46 323.925,0.38 323.925,1.5 L323.925,52.04 Z M370.615,38.46 C370.615,47 363.615,54 355.075,54 L347.305,54 C338.765,54 331.765,47 331.765,38.46 L331.765,15.08 C331.765,6.54 338.765,-0.46 347.305,-0.46 L355.075,-0.46 C363.615,-0.46 370.615,6.54 370.615,15.08 C370.615,16.2 369.775,17.04 368.655,17.04 L364.805,17.04 C363.685,17.04 362.845,16.2 362.845,15.08 C362.845,10.81 359.345,7.31 355.075,7.31 L347.305,7.31 C343.035,7.31 339.535,10.81 339.535,15.08 L339.535,38.46 C339.535,42.73 343.035,46.23 347.305,46.23 L355.075,46.23 C359.345,46.23 362.845,42.73 362.845,38.46 L362.845,30.69 L349.265,30.69 C348.145,30.69 347.305,29.78 347.305,28.73 L347.305,24.81 C347.305,23.76 348.145,22.92 349.265,22.92 L368.655,22.92 C369.775,22.92 370.615,23.76 370.615,24.81 L370.615,38.46 Z" id="ING" fill="#000000"></path>
            </g>
        </g>
    </g>
</svg>